<?xml version="1.0" encoding="UTF-8"?>
<svg version="1.1" xmlns="http://www.w3.org/2000/svg" width="512" height="512">
<path d="M0 0 C168.96 0 337.92 0 512 0 C512 168.96 512 337.92 512 512 C343.04 512 174.08 512 0 512 C0 343.04 0 174.08 0 0 Z " fill="#D7DBDD" transform="translate(0,0)"/>
<path d="M0 0 C2.10578355 -0.00735316 4.21156309 -0.01594299 6.31733704 -0.02566528 C11.99918828 -0.04775528 17.68089396 -0.05081838 23.36278224 -0.04891777 C28.12148735 -0.04879752 32.88016223 -0.05738349 37.63885885 -0.06569529 C48.87189025 -0.08488322 60.10484734 -0.08782954 71.33789062 -0.08105469 C82.89416165 -0.07441281 94.4501136 -0.09729508 106.00631994 -0.13436842 C115.96006375 -0.16513243 125.91370524 -0.17641831 135.8674956 -0.1725316 C141.79849511 -0.17047157 147.729246 -0.17582849 153.66020012 -0.20042419 C159.23941704 -0.22280052 164.81811699 -0.22072317 170.39733696 -0.20049667 C172.43416247 -0.19710619 174.47102356 -0.20209013 176.50780106 -0.21648026 C191.00353569 -0.31175807 202.90918592 1.24059889 215.82055664 8.41992188 C216.69555664 10.60742188 216.69555664 10.60742188 216.82055664 12.41992188 C217.58368164 12.56429687 218.34680664 12.70867187 219.13305664 12.85742188 C223.50157042 13.77176197 225.2855767 14.69126657 228.07055664 18.10742188 C230.89535368 21.45289125 233.81792843 24.27764713 237.24243164 26.99804688 C240.5737622 29.99954272 242.33993875 33.27312921 243.94555664 37.41992188 C244.44442383 38.68835938 244.44442383 38.68835938 244.95336914 39.98242188 C245.71327898 42.11838468 246.31948187 44.2111025 246.82055664 46.41992188 C247.48055664 46.41992188 248.14055664 46.41992188 248.82055664 46.41992188 C248.94172852 47.09539062 249.06290039 47.77085938 249.18774414 48.46679688 C249.35532227 49.35882813 249.52290039 50.25085938 249.69555664 51.16992188 C249.85797852 52.05164063 250.02040039 52.93335938 250.18774414 53.84179688 C250.7049924 56.38248058 250.7049924 56.38248058 251.82836914 58.37304688 C253.94441334 62.73842939 253.94767371 67.59289504 253.9720459 72.36700439 C253.98038956 73.53351532 253.98873322 74.70002625 253.99732971 75.90188599 C254.00151413 77.16757416 254.00569855 78.43326233 254.01000977 79.73730469 C254.01795996 81.09453585 254.02634853 82.45176451 254.03514099 83.80899048 C254.05314162 86.72272254 254.06817672 89.63644929 254.08091736 92.55020905 C254.10119055 97.1551519 254.12883271 101.7600326 254.15759277 106.3649292 C254.22268198 116.96514085 254.27826532 127.56539827 254.33358002 138.16566467 C254.38441492 147.89354269 254.43725071 157.6213979 254.49810553 167.34921908 C254.52647951 171.92984509 254.5500651 176.51046356 254.57003021 181.09113359 C254.58339206 183.93413324 254.6008047 186.77709743 254.6193409 189.6200676 C254.63082868 191.57338562 254.63736679 193.52673076 254.64378357 195.48007202 C254.65212723 196.63530365 254.66047089 197.79053528 254.66906738 198.98077393 C254.67422112 199.98879688 254.67937485 200.99681984 254.68468475 202.03538895 C254.66373674 204.43595457 254.66373674 204.43595457 255.82055664 206.41992188 C256.97018613 213.5476247 256.67582357 220.38825339 256.22509766 227.55737305 C255.78747901 235.20982293 255.80555958 242.83748194 255.86697388 250.49783325 C256.09604732 280.54557436 256.09604732 280.54557436 251.82055664 290.41992188 C251.53180664 291.47179687 251.24305664 292.52367187 250.94555664 293.60742188 C246.28473113 309.40244168 238.0237943 322.4621728 224.82055664 332.41992188 C223.17588848 333.13914985 221.50895042 333.81037396 219.82055664 334.41992188 C218.18691311 335.36344537 216.5623606 336.32282479 214.94555664 337.29492188 C204.63866045 342.86364122 194.57782257 344.64144206 183.02758789 345.03076172 C181.91933655 345.07013037 180.81108521 345.10949902 179.66925049 345.15006065 C162.16866788 345.6820498 144.65269038 345.45991522 127.14710236 345.35231829 C121.92287513 345.3211858 116.69861889 345.29586408 111.47436523 345.2696228 C102.72678103 345.22477552 93.9792322 345.17532498 85.23168945 345.12304688 C75.14189525 345.06280625 65.05208236 345.01008947 54.96222687 344.96127856 C45.19862855 344.91386535 35.4350661 344.86109456 25.67150879 344.80591965 C21.53780812 344.78265671 17.40410417 344.76126324 13.27038574 344.74141312 C8.41098494 344.71784259 3.55163324 344.68956638 -1.30772018 344.65772438 C-3.08379577 344.64682842 -4.85988196 344.6375194 -6.63597488 344.62996101 C-26.96084202 344.54121155 -40.05141732 342.82874158 -56.67163086 330.25195312 C-59.15902543 328.35289168 -59.15902543 328.35289168 -61.99975586 326.86914062 C-62.71905273 326.39089844 -63.43834961 325.91265625 -64.17944336 325.41992188 C-64.17944336 324.42992187 -64.17944336 323.43992187 -64.17944336 322.41992188 C-64.83944336 322.41992188 -65.49944336 322.41992188 -66.17944336 322.41992188 C-67.46850586 320.95898438 -67.46850586 320.95898438 -68.80444336 319.04492188 C-69.25045898 318.4184375 -69.69647461 317.79195313 -70.15600586 317.14648438 C-71.17944336 315.41992188 -71.17944336 315.41992188 -71.17944336 313.41992188 C-71.83944336 313.41992188 -72.49944336 313.41992188 -73.17944336 313.41992188 C-73.17944336 312.75992187 -73.17944336 312.09992188 -73.17944336 311.41992188 C-73.83944336 311.41992188 -74.49944336 311.41992188 -75.17944336 311.41992188 C-76.47580851 308.54701815 -77.76567435 305.67124025 -79.05444336 302.79492188 C-79.60165039 301.58255859 -79.60165039 301.58255859 -80.15991211 300.34570312 C-80.5144043 299.55292969 -80.86889648 298.76015625 -81.23413086 297.94335938 C-81.55881348 297.22067871 -81.88349609 296.49799805 -82.21801758 295.75341797 C-86.62494958 285.05726356 -86.33135636 273.85030433 -86.30883789 262.43530273 C-86.31056189 261.30855605 -86.31228588 260.18180937 -86.31406212 259.02091885 C-86.31837233 255.30885267 -86.31546642 251.59683234 -86.31225586 247.88476562 C-86.31307711 245.91094447 -86.31390408 243.93712327 -86.31520534 241.96330237 C-86.32027676 234.22080174 -86.31584002 226.47832588 -86.30841827 218.7358284 C-86.30493473 215.08814676 -86.30266138 211.44046565 -86.30083954 207.79278284 C-86.28264994 171.40619139 -86.21795642 135.01962036 -85.83156586 98.6347847 C-85.80456339 95.99416009 -85.7809225 93.35352402 -85.75811768 90.71286011 C-85.72208825 86.63123334 -85.67606944 82.5498459 -85.62150574 78.46842575 C-85.6032704 77.01473858 -85.58797383 75.56101061 -85.57606506 74.10725784 C-85.50893459 66.31783824 -85.10036177 58.98931618 -83.17944336 51.41992188 C-82.51944336 51.41992188 -81.85944336 51.41992188 -81.17944336 51.41992188 C-81.08469727 50.31197266 -81.08469727 50.31197266 -80.98803711 49.18164062 C-79.34815563 35.59651725 -72.36129021 27.96412902 -62.17944336 19.41992188 C-60.38296634 17.7367362 -59.28130059 16.62363635 -58.17944336 14.41992188 C-39.6723945 2.5795773 -21.39676986 -0.03556776 0 0 Z " fill="#306B87" transform="translate(171.179443359375,79.580078125)"/>
<path d="M0 0 C2.10460389 -0.00543373 4.20920398 -0.01256333 6.313797 -0.02124023 C11.97906981 -0.03932669 17.64404813 -0.0324675 23.30932546 -0.01972389 C29.26753931 -0.0095209 35.22572974 -0.01900955 41.1839447 -0.02526855 C51.18419879 -0.03252328 61.18433428 -0.02301394 71.18457031 -0.00390625 C82.71074678 0.01786415 94.23664018 0.01080094 105.76280981 -0.01121187 C115.69880137 -0.02942091 125.63470821 -0.03189754 135.57071108 -0.0214572 C141.48767412 -0.01525322 147.40450454 -0.01430089 153.32145882 -0.02760315 C158.88590675 -0.03924167 164.44999311 -0.03099096 170.01440239 -0.00802612 C172.04434995 -0.00278176 174.07432847 -0.00417852 176.10426331 -0.01307678 C191.05011842 -0.07250285 205.36883576 0.99084341 218.80834961 8.26757812 C219.46730225 8.61264404 220.12625488 8.95770996 220.80517578 9.31323242 C242.30943248 20.85817462 256.35886158 38.86361048 263.68334961 62.01757812 C266.07189723 70.70144762 266.77050566 79.56530674 267.49584961 88.51757812 C267.82584961 88.51757812 268.15584961 88.51757812 268.49584961 88.51757812 C268.493629 89.71344543 268.49140839 90.90931274 268.48912048 92.14141846 C268.46871345 103.49605084 268.45379377 114.85067942 268.44403744 126.20532608 C268.43885277 132.04070052 268.43183691 137.87605997 268.42041016 143.71142578 C268.40942236 149.35895685 268.40353966 155.00647364 268.40097237 160.65401459 C268.3991464 162.79220555 268.39558197 164.93039586 268.39011955 167.06858063 C268.36214039 178.49087786 268.46876457 189.85639463 269.23297787 201.25729752 C269.46252924 204.93216372 269.45121399 207.97928683 268.49584961 211.51757812 C268.40567792 213.27189536 268.36796878 215.02925621 268.36645508 216.78588867 C268.36330292 217.83765793 268.36015076 218.88942719 268.35690308 219.97306824 C268.35892731 221.10537369 268.36095154 222.23767914 268.36303711 223.40429688 C268.36208038 224.57587845 268.36112366 225.74746002 268.36013794 226.95454407 C268.35945734 229.43511 268.3613033 231.91567772 268.36547852 234.39624023 C268.37080445 238.17305567 268.36554185 241.94975088 268.35913086 245.7265625 C268.35979213 248.13997422 268.36107431 250.55338586 268.36303711 252.96679688 C268.36000076 254.65007332 268.36000076 254.65007332 268.35690308 256.36735535 C268.37503317 262.50740307 268.7506416 268.42513623 269.49584961 274.51757812 C269.4170597 277.0413967 269.27444561 279.56429384 269.05834961 282.08007812 C268.58832741 287.85712797 268.58832741 287.85712797 268.62084961 293.64257812 C268.35218184 301.97127884 266.70593797 309.91813287 261.49584961 316.51757812 C261.16584961 317.50757813 260.83584961 318.49757813 260.49584961 319.51757812 C259.83584961 319.51757812 259.17584961 319.51757812 258.49584961 319.51757812 C258.41334961 320.56945312 258.33084961 321.62132812 258.24584961 322.70507812 C257.39821543 327.01388522 256.4040405 328.30326188 253.49584961 331.51757812 C252.34325645 333.01239016 251.19803201 334.5128994 250.05834961 336.01757812 C247.38332198 339.44319368 244.72417598 342.58956119 241.49584961 345.51757812 C240.84616211 346.11054688 240.19647461 346.70351563 239.52709961 347.31445312 C222.50740053 361.95139433 202.74876724 365.91973667 180.95263672 367.28393555 C178.41525248 367.52524298 175.98500142 367.97626476 173.49584961 368.51757812 C173.49584961 367.85757812 173.49584961 367.19757813 173.49584961 366.51757812 C172.24677826 366.68023666 170.99770691 366.8428952 169.71078491 367.01048279 C164.15148021 367.62433606 158.64486328 367.65062928 153.05688477 367.63110352 C151.94848236 367.63124954 150.84007996 367.63139557 149.6980896 367.63154602 C146.06034336 367.63085337 142.42264933 367.62309009 138.78491211 367.61523438 C136.24905424 367.61336752 133.71319601 367.61194488 131.17733765 367.61094666 C125.19944411 367.60752778 119.22157269 367.59965985 113.24368799 367.58959717 C106.44521021 367.5784017 99.64673153 367.57291423 92.84824681 367.56790173 C79.43889953 367.55789873 66.02956769 367.54145091 52.62023354 367.52037144 C49.19060956 367.51586189 45.76157495 367.52701921 42.33203125 367.54931641 C36.36883705 367.58575655 30.40565658 367.60858342 24.44238281 367.62744141 C21.88344645 367.637414 19.32452123 367.65099691 16.765625 367.66845703 C-7.80928332 367.83155422 -7.80928332 367.83155422 -19.78149414 366.65039062 C-20.55130112 366.57450714 -21.32110809 366.49862366 -22.11424255 366.42044067 C-33.06859255 365.17227137 -43.3742388 361.90381857 -52.58618164 355.75195312 C-54.58670931 354.35255724 -54.58670931 354.35255724 -57.50415039 353.51757812 C-57.50415039 352.85757812 -57.50415039 352.19757813 -57.50415039 351.51757812 C-58.30852539 351.14632812 -58.30852539 351.14632812 -59.12915039 350.76757812 C-65.14509366 347.6012922 -69.08394496 344.04726326 -73.12915039 338.70507812 C-73.59321289 338.11404297 -74.05727539 337.52300781 -74.53540039 336.9140625 C-82.50415039 326.59295551 -82.50415039 326.59295551 -82.50415039 322.51757812 C-83.16415039 322.51757812 -83.82415039 322.51757812 -84.50415039 322.51757812 C-84.6859082 321.87691406 -84.86766602 321.23625 -85.05493164 320.57617188 C-85.30629883 319.71121094 -85.55766602 318.84625 -85.81665039 317.95507812 C-86.0602832 317.10816406 -86.30391602 316.26125 -86.55493164 315.38867188 C-87.47074098 312.43011627 -87.47074098 312.43011627 -88.95928955 309.40232849 C-90.76972314 305.19440442 -91.52070315 301.00692067 -92.17114258 296.49047852 C-92.36085192 295.18773908 -92.36085192 295.18773908 -92.55439377 293.85868168 C-93.92736796 283.5675606 -93.89988182 273.3147866 -93.83227539 262.95117188 C-93.82920589 260.85376624 -93.82733885 258.75635855 -93.82659912 256.65895081 C-93.82204259 252.30502273 -93.80779261 247.95128443 -93.78540039 243.59741211 C-93.75696263 238.04335332 -93.74616694 232.48944177 -93.74171829 226.93531704 C-93.73654691 221.58641682 -93.72204316 216.23755259 -93.70727539 210.88867188 C-93.70539467 209.88528715 -93.70351395 208.88190243 -93.70157623 207.84811211 C-93.65456346 188.46117593 -93.65456346 188.46117593 -92.61810303 180.56312561 C-92.49396853 178.33480505 -92.91248387 176.65642081 -93.50415039 174.51757812 C-93.3936566 172.88779473 -93.22068778 171.26168724 -93.00415039 169.64257812 C-92.37226991 163.84643985 -92.81877582 158.36716827 -93.44555664 152.58398438 C-93.50466859 149.49045901 -93.15840925 148.07759088 -91.50415039 145.51757812 C-92.16415039 145.51757812 -92.82415039 145.51757812 -93.50415039 145.51757812 C-93.50415039 142.87757813 -93.50415039 140.23757812 -93.50415039 137.51757812 C-93.17415039 137.51757812 -92.84415039 137.51757812 -92.50415039 137.51757812 C-92.50050476 136.77272156 -92.49685913 136.02786499 -92.49310303 135.26043701 C-92.45479274 128.14379299 -92.39746982 121.02759267 -92.32024765 113.91128159 C-92.28120462 110.25512994 -92.24881022 106.59920361 -92.2331543 102.94287109 C-92.11192652 76.60983223 -91.58163561 48.95774086 -72.50415039 28.51757812 C-71.66883789 27.61523438 -70.83352539 26.71289062 -69.97290039 25.78320312 C-50.32775638 5.10834396 -27.50789417 -0.12071368 0 0 Z M-54.50415039 25.51757812 C-55.21524198 26.82775787 -55.88259051 28.16262959 -56.50415039 29.51757812 C-58.27368164 31.29882812 -58.27368164 31.29882812 -60.31665039 33.01757812 C-61.03208008 33.62988281 -61.74750977 34.2421875 -62.48461914 34.87304688 C-64.50415039 36.51757812 -64.50415039 36.51757812 -67.12915039 38.33007812 C-74.35028612 44.98112419 -76.55666553 53.01005766 -77.50415039 62.51757812 C-78.16415039 62.51757812 -78.82415039 62.51757812 -79.50415039 62.51757812 C-81.57066247 70.70295807 -81.84819806 78.68189565 -81.91821289 87.08789062 C-81.93728588 88.58463844 -81.95700846 90.08137809 -81.97731018 91.57810974 C-82.03028706 95.72232875 -82.06970286 99.86657683 -82.10564804 104.01097488 C-82.12925443 106.65422766 -82.15605225 109.29743041 -82.18374634 111.94064331 C-82.56349461 148.66756405 -82.63925489 185.39757458 -82.68208838 222.12621808 C-82.68871178 227.53298841 -82.69988239 232.93973779 -82.71270752 238.34649658 C-82.72825542 245.01940616 -82.7358809 251.69227456 -82.73400086 258.36520272 C-82.7331395 261.81883637 -82.73533598 265.2723923 -82.7460041 268.72601128 C-82.75582939 272.52321906 -82.7530139 276.32022024 -82.74707031 280.11743164 C-82.75269297 281.21778811 -82.75831562 282.31814457 -82.76410866 283.45184517 C-82.72215346 293.82542266 -81.45694414 302.86623711 -76.44165039 312.01757812 C-72.5555858 319.3632719 -72.5555858 319.3632719 -71.50415039 322.51757812 C-70.84415039 322.51757812 -70.18415039 322.51757812 -69.50415039 322.51757812 C-69.50415039 323.17757813 -69.50415039 323.83757812 -69.50415039 324.51757812 C-68.84415039 324.51757812 -68.18415039 324.51757812 -67.50415039 324.51757812 C-67.23602539 325.26007813 -66.96790039 326.00257813 -66.69165039 326.76757812 C-65.55138288 329.40819761 -64.41034733 331.37310657 -62.50415039 333.51757812 C-61.84415039 333.51757812 -61.18415039 333.51757812 -60.50415039 333.51757812 C-60.50415039 334.50757813 -60.50415039 335.49757813 -60.50415039 336.51757812 C-58.52963143 337.96575694 -56.58299163 339.23985984 -54.50415039 340.51757812 C-48.98296723 344.38374643 -48.98296723 344.38374643 -46.35961914 346.25 C-41.28294387 349.80609592 -36.62101725 352.44712642 -30.50415039 353.51757812 C-29.5866482 353.85275735 -28.669146 354.18793657 -27.72384071 354.53327274 C-24.42962046 355.54036299 -21.91921464 355.74452003 -18.48910522 355.70396423 C-16.71931273 355.69229517 -16.71931273 355.69229517 -14.91376686 355.68039036 C-13.63310026 355.6626755 -12.35243366 355.64496065 -11.03295898 355.62670898 C-8.94281754 355.61021747 -6.85267424 355.5977544 -4.76250446 355.58542556 C-3.28805301 355.57653817 -1.81360803 355.56651247 -0.33917153 355.55541831 C8.06004495 355.49503437 16.45768348 355.55949012 24.85668945 355.62524414 C26.47368591 355.63699143 28.09068333 355.64860648 29.70768166 355.66009426 C33.05574953 355.68398339 36.40381248 355.70844288 39.75187302 355.73333931 C45.10439476 355.77290017 50.45693366 355.80968588 55.80947876 355.84593201 C56.72486526 355.85214225 57.64025176 355.85835249 58.58337724 355.86475092 C60.45064668 355.87741466 62.31791616 355.89007269 64.18518567 355.9027251 C76.58678174 355.98687007 88.98835931 356.07279159 101.38989258 356.16577148 C109.84155044 356.22911613 118.29322691 356.28821169 126.74494708 356.34263366 C131.18252712 356.37137148 135.62007068 356.4020963 140.05759811 356.43811226 C163.4097642 356.63367741 163.4097642 356.63367741 186.75610352 356.16577148 C187.72484091 356.13656648 188.6935783 356.10736147 189.69167137 356.07727146 C200.93720054 355.59580791 211.93114722 352.7560651 221.53881836 346.72851562 C223.49584961 345.51757812 223.49584961 345.51757812 226.36694336 344.17382812 C239.449206 337.24888511 246.94436516 324.74272112 252.49584961 311.51757812 C252.86709961 310.80085938 253.23834961 310.08414062 253.62084961 309.34570312 C254.58879456 307.32338957 255.05357707 305.4631454 255.49584961 303.26757812 C256.09750615 300.35878196 256.76349344 297.50406034 257.55834961 294.64257812 C259.93683301 285.03410231 259.59891 275.06833901 259.51443481 265.23995972 C259.42256009 254.25376367 259.34858826 243.29854137 260.22827148 232.33789062 C260.62806197 226.93272327 260.98096986 220.48781863 258.49584961 215.51757812 C258.39480728 213.71344081 258.35802649 211.90556882 258.35108948 210.09861755 C258.34419098 208.94772141 258.33729248 207.79682526 258.33018494 206.61105347 C258.32626488 204.70744553 258.32626488 204.70744553 258.32226562 202.76538086 C258.31596148 201.42009771 258.30919583 200.07481665 258.30200195 198.72953796 C258.28731701 195.8277524 258.27559799 192.92597498 258.26605415 190.02416801 C258.2506058 185.43022257 258.22665369 180.83634613 258.20115662 176.2424469 C258.12995294 163.17721931 258.07029941 150.11195136 258.01904297 137.04663086 C257.99067259 129.83423478 257.95525016 122.62190655 257.91238922 115.40958172 C257.88571216 110.84928609 257.86774786 106.28906722 257.85635197 101.7287091 C257.84717671 98.87987696 257.82979114 96.03113725 257.81017303 93.1823597 C257.79922571 91.24586671 257.79795199 89.30932645 257.79704285 87.37280273 C257.74263319 80.81880715 257.29567508 74.82976603 255.49584961 68.51757812 C255.14522461 67.25945312 254.79459961 66.00132812 254.43334961 64.70507812 C254.12397461 63.65320313 253.81459961 62.60132813 253.49584961 61.51757812 C253.15449034 60.18627698 252.81659005 58.85399664 252.49584961 57.51757812 C251.83584961 57.51757812 251.17584961 57.51757812 250.49584961 57.51757812 C250.22321289 56.64746094 250.22321289 56.64746094 249.94506836 55.75976562 C246.19991405 44.1209784 240.46674465 36.74052188 231.09741211 28.96289062 C229.49584961 27.51757812 229.49584961 27.51757812 228.49584961 25.51757812 C225.46396401 23.6357181 224.25067606 23.51757812 220.49584961 23.51757812 C220.40110352 22.60685547 220.40110352 22.60685547 220.30444336 21.67773438 C219.67019063 19.32596196 219.67019063 19.32596196 217.34350586 18.13867188 C216.4244043 17.74808594 215.50530273 17.3575 214.55834961 16.95507812 C213.66245117 16.56191406 212.76655273 16.16875 211.84350586 15.76367188 C210.18641602 15.14685547 210.18641602 15.14685547 208.49584961 14.51757812 C207.90672161 14.26536184 207.31759361 14.01314556 206.71061325 13.75328636 C197.43295171 10.3114337 187.49547005 11.09780763 177.75463867 11.12939453 C175.64782439 11.12532513 173.54101224 11.11998119 171.4342041 11.11346436 C165.73150524 11.0998255 160.0289698 11.10507618 154.3262682 11.11460161 C148.34305711 11.12221997 142.35985961 11.11514619 136.37664795 11.11044312 C126.32618714 11.10499021 116.27579254 11.11216323 106.2253418 11.12646484 C94.6317177 11.14277263 83.03825204 11.13751451 71.44463181 11.12098563 C61.46890866 11.10733627 51.49323299 11.10546847 41.5175035 11.11330163 C35.56922167 11.1179615 29.62101409 11.11864997 23.67273712 11.10869217 C18.07479507 11.09997515 12.4770555 11.10613043 6.87913513 11.12337494 C4.83383774 11.12731537 2.78852307 11.12624807 0.74323273 11.11958694 C-19.03267643 11.06115875 -37.81350174 13.82215945 -54.50415039 25.51757812 Z " fill="#AEB7C5" transform="translate(167.504150390625,68.482421875)"/>
<path d="M0 0 C4.28190852 2.78324054 4.28190852 2.78324054 5.027771 5.66201782 C5.84696709 12.42961303 4.80554589 17.19590648 2.265625 23.4609375 C1.91663651 24.36986755 1.56764801 25.27879761 1.20808411 26.215271 C0.07514028 29.15163338 -1.08695596 32.0754457 -2.25 35 C-3.04166474 37.03556936 -3.83144816 39.07187136 -4.61938477 41.10888672 C-6.54665171 46.0771742 -8.49684293 51.03599821 -10.45806885 55.9909668 C-11.8899278 59.61074918 -13.31034968 63.23497525 -14.73046875 66.859375 C-16.06449129 70.2585738 -17.40061395 73.65683776 -18.74487305 77.05200195 C-24.26888308 91.02077507 -29.40622876 105.13461124 -34.54975891 119.24699402 C-35.23452493 121.12353267 -35.92181383 122.99915006 -36.60913086 124.87475586 C-37.47382933 127.23459919 -38.33424468 129.59601781 -39.18969727 131.95922852 C-39.57955811 133.02197998 -39.96941895 134.08473145 -40.37109375 135.1796875 C-40.71068115 136.11280762 -41.05026855 137.04592773 -41.40014648 138.00732422 C-42.9504304 141.69703434 -44.53931125 144.78075837 -47.5625 147.4375 C-51.91010386 149.19504199 -55.88124276 149.42312125 -60.5 148.625 C-63.69952543 146.97616481 -65.74786614 144.65063708 -67.875 141.75 C-69.98279787 134.58348723 -67.34959739 128.55758625 -64.8125 121.875 C-64.21562378 120.26262451 -64.21562378 120.26262451 -63.60668945 118.61767578 C-62.72472064 116.2390884 -61.83765716 113.8623857 -60.94628906 111.48730469 C-59.42277353 107.42780583 -57.92572724 103.35875026 -56.4296875 99.2890625 C-51.00653227 84.55997195 -45.48367437 69.87395862 -39.76913452 55.25534058 C-36.76586528 47.57227024 -33.83514385 39.86795741 -31 32.12109375 C-30.70706055 31.32269073 -30.41412109 30.52428772 -30.11230469 29.70169067 C-28.68569777 25.81125422 -27.26757347 21.91807753 -25.86328125 18.01953125 C-25.34666092 16.60535665 -24.82974843 15.19128874 -24.3125 13.77734375 C-23.64154297 11.9209729 -23.64154297 11.9209729 -22.95703125 10.02709961 C-21.18772178 5.895845 -19.31293057 1.88822673 -15.5546875 -0.73046875 C-10.32825178 -2.36994003 -5.03803546 -1.97922822 0 0 Z " fill="#ECF3F5" transform="translate(236.5,169.375)"/>
<path d="M0 0 C4.44566344 0.05176064 7.29835907 0.21673979 10.75 3.25 C15.03184735 7.75223244 16.79153417 12.89756357 18.91015625 18.62109375 C19.29632614 19.64233841 19.68249603 20.66358307 20.08036804 21.71577454 C21.33332853 25.03640484 22.57300799 28.36182158 23.8125 31.6875 C24.67734292 33.98692344 25.54290615 36.28607608 26.40917969 38.58496094 C31.2648173 51.49339911 36.03502715 64.43128605 40.73071289 77.39868164 C45.16057533 89.54435511 49.93608219 101.55328041 54.71386719 113.56542969 C55.02547791 114.34888763 55.33708862 115.13234558 55.65814209 115.93954468 C56.23907238 117.398614 56.82090488 118.85732461 57.40386963 120.31558228 C63.91154729 136.63423063 63.91154729 136.63423063 62.75 143.25 C60.69161475 146.58600367 59.0106736 148.0762176 55.75 150.25 C50.62715598 150.94162415 46.09551481 150.81266983 41.3125 148.8125 C36.06654087 143.56654087 34.02678743 135.55417942 31.5 128.67578125 C30.89186717 127.03796637 30.28362716 125.40019127 29.67529297 123.76245117 C29.36154724 122.91476166 29.04780151 122.06707214 28.72454834 121.19369507 C23.85292998 108.04075265 18.89842509 94.93495231 13.625 81.9375 C8.59806638 69.54124852 3.8900628 57.04449618 -0.71142578 44.48510742 C-1.22154483 43.09549085 -1.73179653 41.70592297 -2.2421875 40.31640625 C-2.48830276 39.64414505 -2.73441803 38.97188385 -2.98799133 38.2792511 C-4.24912258 34.8602514 -5.55493149 31.46784454 -6.94165039 28.09765625 C-7.21764069 27.42524399 -7.49363098 26.75283173 -7.77798462 26.06004333 C-8.53955502 24.21921177 -9.31223732 22.38298844 -10.08569336 20.54711914 C-11.77706245 15.75744843 -12.44276348 11.22849104 -11.25 6.25 C-8.8125 3.125 -8.8125 3.125 -6.25 1.25 C-4.535532 -0.464468 -2.33657934 0.03748523 0 0 Z " fill="#ECF3F5" transform="translate(277.25,167.75)"/>
<path d="M0 0 C1.02480469 -0.01611328 2.04960937 -0.03222656 3.10546875 -0.04882812 C9.10620017 -0.0526896 13.47386499 0.3821061 18.75 3.3125 C21.42151851 5.98401851 21.04873672 7.40432532 21.0625 11.125 C21.07925781 12.16269531 21.09601563 13.20039062 21.11328125 14.26953125 C20.55719223 18.92752418 18.72604023 21.33312858 15.4609375 24.609375 C12.15612862 26.68559499 10.24027364 26.65431173 6.375 26.5625 C1.78283508 26.73631125 1.78283508 26.73631125 -2.23046875 28.6875 C-3.8609861 30.5725549 -3.8609861 30.5725549 -5.3828125 32.734375 C-7.7484427 36.00072633 -10.43446152 38.87180249 -13.1875 41.8125 C-13.70787842 42.37565918 -14.22825684 42.93881836 -14.7644043 43.51904297 C-18.19435384 47.22362588 -21.69949374 50.83233187 -25.3359375 54.3359375 C-25.96757812 54.98820312 -26.59921875 55.64046875 -27.25 56.3125 C-27.73710449 56.76689957 -28.22420898 57.22129913 -28.72607422 57.68946838 C-32.7787454 61.81065422 -33.93411419 64.7555257 -33.97964478 70.50770569 C-33.95800262 71.39332687 -33.93636047 72.27894806 -33.9140625 73.19140625 C-33.920392 74.58684914 -33.920392 74.58684914 -33.92684937 76.01048279 C-33.93766921 78.96614628 -33.90972181 81.91954673 -33.875 84.875 C-33.85090426 87.83371551 -33.83578791 90.79142038 -33.84457397 93.75022888 C-33.84912863 95.58562551 -33.83461997 97.42119898 -33.79824829 99.25624084 C-33.80057572 104.78858388 -34.53633008 107.93612556 -38.25 112.3125 C-41.30145984 114.83327117 -43.33982194 116.16080366 -47.25 116.8125 C-51.92963708 116.03256049 -54.96247299 113.77761694 -58.0625 110.25 C-60.10713478 106.91401693 -60.38487318 104.14700387 -60.42700195 100.32543945 C-60.44625481 98.80289299 -60.44625481 98.80289299 -60.46589661 97.24958801 C-60.47328354 96.15273178 -60.48067047 95.05587555 -60.48828125 93.92578125 C-60.496353 92.79480515 -60.50442474 91.66382904 -60.51274109 90.49858093 C-60.52658011 88.1020155 -60.53730307 85.70543038 -60.54516602 83.30883789 C-60.56235093 79.65667967 -60.60623708 76.0054332 -60.65039062 72.35351562 C-60.66052019 70.02344415 -60.66903547 67.69336498 -60.67578125 65.36328125 C-60.69328934 64.27654617 -60.71079742 63.1898111 -60.72883606 62.07014465 C-60.70602053 54.03134275 -59.22086468 48.88086631 -54.07104492 42.6953125 C-52.91245972 41.57769531 -52.91245972 41.57769531 -51.73046875 40.4375 C-50.87259766 39.59703125 -50.01472656 38.7565625 -49.13085938 37.890625 C-48.24205078 37.03984375 -47.35324219 36.1890625 -46.4375 35.3125 C-40.9691903 30.00892263 -35.57892498 24.74492109 -30.64892578 18.93066406 C-29.25 17.3125 -29.25 17.3125 -26.9375 15.0625 C-25.15556252 13.40955274 -25.15556252 13.40955274 -24.3125 11.25 C-22.84755498 8.57862968 -20.86882397 7.80897084 -18.25 6.3125 C-16.89691687 4.99921343 -15.56129922 3.66750919 -14.25 2.3125 C-9.7255008 -0.7038328 -5.32255633 -0.01648871 0 0 Z " fill="#F0F6F7" transform="translate(176.25,103.6875)"/>
<path d="M0 0 C0.92554688 -0.02900391 1.85109375 -0.05800781 2.8046875 -0.08789062 C9.04559077 -0.14518705 13.83491152 0.45355278 18.875 4.3125 C21.06798211 6.50858632 23.07422348 8.81349279 25.09033203 11.17333984 C28.49110039 15.0935657 32.20484752 18.69444007 35.90234375 22.33203125 C36.62241608 23.04390594 37.3424884 23.75578064 38.0843811 24.48922729 C41.09059991 27.46023138 44.10052228 30.42733869 47.11938477 33.38549805 C49.34544449 35.56929231 51.56199609 37.76237821 53.77734375 39.95703125 C54.46062241 40.621689 55.14390106 41.28634674 55.84788513 41.97114563 C56.47936966 42.59917587 57.11085419 43.22720612 57.76147461 43.87426758 C58.316129 44.41924393 58.87078339 44.96422028 59.44224548 45.52571106 C62.45199358 49.27916955 63.12610821 52.93273889 63.16552734 57.65014648 C63.17828705 58.69150253 63.19104675 59.73285858 63.20419312 60.80577087 C63.20641876 61.92045242 63.20864441 63.03513397 63.2109375 64.18359375 C63.2209227 65.91622215 63.2209227 65.91622215 63.23110962 67.68385315 C63.2412238 70.12393605 63.24592702 72.56404655 63.24560547 75.00415039 C63.24998011 78.73304846 63.28631907 82.46076423 63.32421875 86.18945312 C63.33008684 88.56249596 63.33405629 90.93554441 63.3359375 93.30859375 C63.35030853 94.42125107 63.36467957 95.53390839 63.37948608 96.68028259 C63.33518407 104.20049565 62.31505202 107.61762931 57.1875 113.125 C53.53039654 115.00297205 49.97213979 115.54011888 45.875 115.3125 C40.84467596 112.98364628 38.83324562 110.42494465 36.875 105.3125 C36.71677909 102.27759835 37.0438363 99.32379178 37.34765625 96.3046875 C39.31166321 73.44699707 39.31166321 73.44699707 29.796875 53.52734375 C24.59224255 47.92153006 18.73952641 42.96963305 12.71057129 38.2736969 C8.71090284 35.14825183 5.92658597 31.95071081 3.0871582 27.72290039 C1.83246211 25.99619363 1.83246211 25.99619363 -1.16015625 25.48828125 C-2.15917969 25.53339844 -3.15820312 25.57851562 -4.1875 25.625 C-9.83510237 25.52702425 -9.83510237 25.52702425 -13.25 23 C-16.87226083 17.80809281 -18.23306754 13.65371822 -17.125 7.3125 C-12.91062078 -0.23891555 -7.78287044 0.07930914 0 0 Z " fill="#EFF6F7" transform="translate(330.125,104.6875)"/>
<path d="M0 0 C3.33777742 2.69862856 6.7329176 5.74775364 7.26069641 10.19839478 C7.2653038 11.05283173 7.26991119 11.90726868 7.2746582 12.78759766 C7.28419022 13.75935944 7.29372223 14.73112122 7.30354309 15.73233032 C7.30263168 16.78230194 7.30172028 17.83227356 7.30078125 18.9140625 C7.30506638 19.99827484 7.3093515 21.08248718 7.31376648 22.19955444 C7.31951466 24.49777529 7.32000647 26.79601433 7.31567383 29.09423828 C7.31253102 32.59049125 7.33590788 36.085884 7.36132812 39.58203125 C7.36360294 41.81770727 7.36430377 44.05338556 7.36328125 46.2890625 C7.372491 47.32688873 7.38170074 48.36471497 7.39118958 49.43399048 C7.33113884 58.98492126 5.70914868 65.98476683 -1.0625 73 C-1.54493164 73.50563477 -2.02736328 74.01126953 -2.52441406 74.53222656 C-6.39249454 78.53168534 -10.50846318 82.23308815 -14.703125 85.88671875 C-17.61918352 88.56969096 -20.13205193 91.4921698 -22.625 94.56640625 C-23.07875 95.03949219 -23.5325 95.51257813 -24 96 C-24.66 96 -25.32 96 -26 96 C-26.495 97.485 -26.495 97.485 -27 99 C-31.07542667 103.56941778 -37.77023671 110.66624092 -44.24316406 111.17700195 C-47.24554911 111.24336323 -50.24700231 111.2849327 -53.25 111.3125 C-54.28769531 111.34150391 -55.32539063 111.37050781 -56.39453125 111.40039062 C-62.58908241 111.4518141 -66.33685502 111.22883246 -71 107 C-73.83880927 102.74178609 -73.51165313 98.99661255 -73 94 C-71.26609783 89.71087359 -69.09532876 88.02750453 -65 86 C-61.82077393 85.83115509 -58.7259289 85.93864485 -55.546875 86.08984375 C-50.65323045 84.58617984 -48.74609867 81.62702803 -45.52050781 77.76293945 C-42.91879197 74.91098109 -40.24398033 72.80413241 -37.125 70.5390625 C-28.7595717 64.04707173 -20.68764385 57.68310184 -18.90039062 46.71679688 C-17.75014364 36.10882566 -18.0844981 25.312106 -18.90533447 14.68731689 C-19.2250784 9.86177284 -19.19228584 6.93866997 -16 3 C-11.00123798 -1.37391677 -6.25666099 -1.62739161 0 0 Z " fill="#CBDAE2" transform="translate(386,280)"/>
<path d="M0 0 C3.57951625 2.20863769 5.4043628 4.15487209 7 8 C7.23136902 10.05963135 7.23136902 10.05963135 7.20776367 12.27441406 C7.20367744 13.52656708 7.20367744 13.52656708 7.19950867 14.80401611 C7.18910049 15.69884705 7.17869232 16.59367798 7.16796875 17.515625 C7.17364797 19.42578623 7.18085795 21.33594341 7.18945312 23.24609375 C7.1936205 26.2461167 7.18755755 29.24477101 7.15454102 32.24462891 C7.12749902 35.14841328 7.14449273 38.04936566 7.16796875 40.953125 C7.14743942 41.83985901 7.1269101 42.72659302 7.10575867 43.64019775 C7.20152527 49.86498991 8.8804407 52.90468719 13.23847961 57.31973267 C13.81978134 57.87422089 14.40108307 58.42870911 15 59 C15.67998047 59.74773682 16.35996094 60.49547363 17.06054688 61.26586914 C17.60775391 61.84973389 18.15496094 62.43359863 18.71875 63.03515625 C19.34136719 63.69966797 19.96398437 64.36417969 20.60546875 65.04882812 C21.23066406 65.71333984 21.85585937 66.37785156 22.5 67.0625 C23.12519531 67.73087891 23.75039062 68.39925781 24.39453125 69.08789062 C28.03081048 72.9613185 31.72755837 76.75128693 35.53710938 80.45483398 C37 82 37 82 39 85 C41.9168411 85.47432994 41.9168411 85.47432994 45.25 85.5 C51.08666751 85.82855413 55.53109937 86.2574381 59.62109375 90.80078125 C62.02735632 94.63853146 61.62787231 98.62559293 61 103 C58.94037608 107.11924783 57.26066485 109.3243088 53 111 C49.05310308 111.44757074 45.09471916 111.37027976 41.125 111.375 C39.51044922 111.41173828 39.51044922 111.41173828 37.86328125 111.44921875 C36.81785156 111.45308594 35.77242187 111.45695312 34.6953125 111.4609375 C33.74672363 111.46915527 32.79813477 111.47737305 31.82080078 111.48583984 C25.9223317 110.46991865 21.935095 106.18542269 17.84765625 102.078125 C17.38443466 101.61444519 16.92121307 101.15076538 16.44395447 100.67303467 C15.47107509 99.6971552 14.50060571 98.71886763 13.5324707 97.73828125 C12.07482952 96.2624831 10.60944593 94.79474672 9.14257812 93.328125 C4.41444825 88.58114357 -0.19929629 83.78565679 -4.50366211 78.64746094 C-6.08993876 76.90097785 -7.77739463 75.46354525 -9.625 74 C-14.17046485 70.26330029 -17.14608433 65.56174702 -19 60 C-19.11690236 58.33500476 -19.17916944 56.66590251 -19.20874023 54.99707031 C-19.22803085 53.97881165 -19.24732147 52.96055298 -19.26719666 51.91143799 C-19.32502842 47.25479771 -19.37421155 42.59830998 -19.4050293 37.94140625 C-19.4266147 35.4874871 -19.46072338 33.03364505 -19.50756836 30.58007812 C-19.5745776 27.0374115 -19.60203124 23.49633605 -19.62109375 19.953125 C-19.64892441 18.86122864 -19.67675507 17.76933228 -19.70542908 16.64434814 C-19.68877339 10.45592778 -19.06662582 6.81120845 -14.68128967 2.30633545 C-9.8103976 -1.47827055 -5.8462574 -1.4511246 0 0 Z " fill="#CCDBE3" transform="translate(135,280)"/>
<path d="M0 0 C3.33777742 2.69862856 6.7329176 5.74775364 7.26069641 10.19839478 C7.2653038 11.05283173 7.26991119 11.90726868 7.2746582 12.78759766 C7.28419022 13.75935944 7.29372223 14.73112122 7.30354309 15.73233032 C7.30263168 16.78230194 7.30172028 17.83227356 7.30078125 18.9140625 C7.30506638 19.99827484 7.3093515 21.08248718 7.31376648 22.19955444 C7.31951466 24.49777529 7.32000647 26.79601433 7.31567383 29.09423828 C7.31253102 32.59049125 7.33590788 36.085884 7.36132812 39.58203125 C7.36360294 41.81770727 7.36430377 44.05338556 7.36328125 46.2890625 C7.372491 47.32688873 7.38170074 48.36471497 7.39118958 49.43399048 C7.33113884 58.98492126 5.70914868 65.98476683 -1.0625 73 C-1.54493164 73.50563477 -2.02736328 74.01126953 -2.52441406 74.53222656 C-6.39249454 78.53168534 -10.50846318 82.23308815 -14.703125 85.88671875 C-17.61918352 88.56969096 -20.13205193 91.4921698 -22.625 94.56640625 C-23.07875 95.03949219 -23.5325 95.51257813 -24 96 C-24.66 96 -25.32 96 -26 96 C-26.495 97.485 -26.495 97.485 -27 99 C-31.07542667 103.56941778 -37.77023671 110.66624092 -44.24316406 111.17700195 C-47.24554911 111.24336323 -50.24700231 111.2849327 -53.25 111.3125 C-54.28769531 111.34150391 -55.32539063 111.37050781 -56.39453125 111.40039062 C-62.58908241 111.4518141 -66.33685502 111.22883246 -71 107 C-73.83880927 102.74178609 -73.51165313 98.99661255 -73 94 C-71.26609783 89.71087359 -69.09532876 88.02750453 -65 86 C-61.82077393 85.83115509 -58.7259289 85.93864485 -55.546875 86.08984375 C-50.65323045 84.58617984 -48.74609867 81.62702803 -45.52050781 77.76293945 C-42.91879197 74.91098109 -40.24398033 72.80413241 -37.125 70.5390625 C-28.7595717 64.04707173 -20.68764385 57.68310184 -18.90039062 46.71679688 C-17.75014364 36.10882566 -18.0844981 25.312106 -18.90533447 14.68731689 C-19.2250784 9.86177284 -19.19228584 6.93866997 -16 3 C-11.00123798 -1.37391677 -6.25666099 -1.62739161 0 0 Z M-15 9 C-15.55323393 12.30397695 -15.48624565 15.5595993 -15.43359375 18.90234375 C-15.44319899 20.86393308 -15.45296971 22.82552161 -15.46289062 24.78710938 C-15.45429135 27.8658964 -15.43744978 30.94447483 -15.4152832 34.02319336 C-15.40074192 37.00415718 -15.41602946 39.98392224 -15.43359375 42.96484375 C-15.41711288 43.88063705 -15.40063202 44.79643036 -15.38365173 45.73997498 C-15.41902652 50.28152015 -15.63054107 52.4490781 -18.22290039 56.31469727 C-19.13934326 57.20084717 -20.05578613 58.08699707 -21 59 C-21.8254834 59.8468335 -22.6509668 60.69366699 -23.50146484 61.56616211 C-24.32598145 62.36932861 -25.15049805 63.17249512 -26 64 C-26.80775879 64.80252197 -27.61551758 65.60504395 -28.44775391 66.43188477 C-29.28226074 67.26002686 -30.11676758 68.08816895 -30.9765625 68.94140625 C-32.37938345 70.33733131 -33.78219667 71.73326423 -35.18457031 73.12963867 C-36.14755215 74.08756077 -37.1114251 75.04458786 -38.07617188 76.00073242 C-39.48284143 77.39523438 -40.88599552 78.79327965 -42.2890625 80.19140625 C-43.12131348 81.01842041 -43.95356445 81.84543457 -44.81103516 82.69750977 C-47.014365 84.90203355 -47.014365 84.90203355 -48.59570312 87.27124023 C-50 89 -50 89 -53.1796875 89.46875 C-55.00886719 89.48421875 -55.00886719 89.48421875 -56.875 89.5 C-62.36937171 89.54666133 -65.03957521 90.08341755 -69 94 C-70.58939347 97.17878694 -70.41576711 99.4956772 -70 103 C-66.59301899 106.84334311 -64.23623508 108.28722306 -59.1015625 108.734375 C-57.27630865 108.7660268 -55.45041239 108.77056803 -53.625 108.75 C-52.7175 108.78609375 -51.81 108.8221875 -50.875 108.859375 C-44.77995385 108.859375 -41.55682895 107.65505952 -37.25537109 103.36669922 C-36.51109863 102.58568848 -35.76682617 101.80467773 -35 101 C-33.98508582 100.00278757 -32.96603636 99.00977388 -31.94384766 98.02001953 C-29.03363058 95.19565362 -26.15547571 92.34117471 -23.28808594 89.47338867 C-21.48129534 87.66881833 -19.66660404 85.8724388 -17.8515625 84.07617188 C-16.70263784 82.9301757 -15.55418248 81.78370878 -14.40625 80.63671875 C-13.86262817 80.10028244 -13.31900635 79.56384613 -12.75891113 79.01115417 C-9.88940421 76.48339714 -9.88940421 76.48339714 -9 73 C-8.41613525 72.73848145 -7.83227051 72.47696289 -7.23071289 72.20751953 C-2.69167332 69.75046692 -0.14605067 66.69426458 2 62 C3.30415124 55.15394309 2.98079774 48.06331415 2.9375 41.125 C2.95063173 39.23565261 2.96688289 37.34632421 2.98632812 35.45703125 C3.0252082 31.05217773 3.02031538 26.64885216 3.00045776 22.243927 C2.99969133 18.48694046 3.08767022 14.73032673 3.19140625 10.97485352 C3.11178814 8.66378422 3.11178814 8.66378422 1.0625 5.8125 C-2.47561664 3.7185126 -4.78166513 3.40586369 -8.81640625 3.3359375 C-12.22282088 4.37187755 -13.14349101 5.97813845 -15 9 Z " fill="#F0F4F5" transform="translate(386,280)"/>
<path d="M0 0 C3.57951625 2.20863769 5.4043628 4.15487209 7 8 C7.23136902 10.05963135 7.23136902 10.05963135 7.20776367 12.27441406 C7.20367744 13.52656708 7.20367744 13.52656708 7.19950867 14.80401611 C7.18910049 15.69884705 7.17869232 16.59367798 7.16796875 17.515625 C7.17364797 19.42578623 7.18085795 21.33594341 7.18945312 23.24609375 C7.1936205 26.2461167 7.18755755 29.24477101 7.15454102 32.24462891 C7.12749902 35.14841328 7.14449273 38.04936566 7.16796875 40.953125 C7.14743942 41.83985901 7.1269101 42.72659302 7.10575867 43.64019775 C7.20152527 49.86498991 8.8804407 52.90468719 13.23847961 57.31973267 C13.81978134 57.87422089 14.40108307 58.42870911 15 59 C15.67998047 59.74773682 16.35996094 60.49547363 17.06054688 61.26586914 C17.60775391 61.84973389 18.15496094 62.43359863 18.71875 63.03515625 C19.34136719 63.69966797 19.96398437 64.36417969 20.60546875 65.04882812 C21.23066406 65.71333984 21.85585937 66.37785156 22.5 67.0625 C23.12519531 67.73087891 23.75039062 68.39925781 24.39453125 69.08789062 C28.03081048 72.9613185 31.72755837 76.75128693 35.53710938 80.45483398 C37 82 37 82 39 85 C41.9168411 85.47432994 41.9168411 85.47432994 45.25 85.5 C51.08666751 85.82855413 55.53109937 86.2574381 59.62109375 90.80078125 C62.02735632 94.63853146 61.62787231 98.62559293 61 103 C58.94037608 107.11924783 57.26066485 109.3243088 53 111 C49.05310308 111.44757074 45.09471916 111.37027976 41.125 111.375 C39.51044922 111.41173828 39.51044922 111.41173828 37.86328125 111.44921875 C36.81785156 111.45308594 35.77242187 111.45695312 34.6953125 111.4609375 C33.74672363 111.46915527 32.79813477 111.47737305 31.82080078 111.48583984 C25.9223317 110.46991865 21.935095 106.18542269 17.84765625 102.078125 C17.38443466 101.61444519 16.92121307 101.15076538 16.44395447 100.67303467 C15.47107509 99.6971552 14.50060571 98.71886763 13.5324707 97.73828125 C12.07482952 96.2624831 10.60944593 94.79474672 9.14257812 93.328125 C4.41444825 88.58114357 -0.19929629 83.78565679 -4.50366211 78.64746094 C-6.08993876 76.90097785 -7.77739463 75.46354525 -9.625 74 C-14.17046485 70.26330029 -17.14608433 65.56174702 -19 60 C-19.11690236 58.33500476 -19.17916944 56.66590251 -19.20874023 54.99707031 C-19.22803085 53.97881165 -19.24732147 52.96055298 -19.26719666 51.91143799 C-19.32502842 47.25479771 -19.37421155 42.59830998 -19.4050293 37.94140625 C-19.4266147 35.4874871 -19.46072338 33.03364505 -19.50756836 30.58007812 C-19.5745776 27.0374115 -19.60203124 23.49633605 -19.62109375 19.953125 C-19.64892441 18.86122864 -19.67675507 17.76933228 -19.70542908 16.64434814 C-19.68877339 10.45592778 -19.06662582 6.81120845 -14.68128967 2.30633545 C-9.8103976 -1.47827055 -5.8462574 -1.4511246 0 0 Z M-15 10 C-16.0047029 13.7529165 -15.93556048 17.37538024 -15.859375 21.2421875 C-15.86132874 22.32452667 -15.86328247 23.40686584 -15.86529541 24.52200317 C-15.86130336 26.8065899 -15.84007087 29.09120318 -15.80273438 31.37548828 C-15.75026828 34.85719644 -15.76155283 38.33443962 -15.78125 41.81640625 C-15.76943139 44.04169014 -15.75392737 46.26695813 -15.734375 48.4921875 C-15.73822205 49.52576385 -15.74206909 50.55934021 -15.74603271 51.62423706 C-15.53615734 60.89233731 -12.18577251 66.27244807 -5.6015625 72.65625 C-4.79203125 73.45160156 -3.9825 74.24695313 -3.1484375 75.06640625 C-2.31570312 75.86949219 -1.48296875 76.67257812 -0.625 77.5 C4.59118169 82.57762686 9.6800423 87.65331646 14.41845703 93.18261719 C16.75337082 95.86571355 19.23115234 98.36326772 21.75 100.875 C22.67296875 101.80054688 23.5959375 102.72609375 24.546875 103.6796875 C29.90484058 108.74757214 33.84056363 108.36594667 40.875 108.375 C41.86886719 108.39949219 42.86273438 108.42398438 43.88671875 108.44921875 C49.80154419 108.4852368 49.80154419 108.4852368 55.109375 106.08984375 C58.23493807 102.63493416 59.04239895 101.20836998 58.875 96.4375 C58.30568421 93.06140084 58.30568421 93.06140084 56.43359375 91.30078125 C53.06401638 89.49970699 49.90690427 89.72907808 46.1875 89.75 C37.43646941 89.49264553 37.43646941 89.49264553 33.9375 85.9375 C32.95699432 84.62600001 31.97798028 83.31338425 31 82 C25.21895783 74.98340919 18.7380433 68.69420446 12.23242188 62.359375 C11.45833984 61.59625 10.68425781 60.833125 9.88671875 60.046875 C9.18764404 59.36463867 8.48856934 58.68240234 7.76831055 57.97949219 C4.81516048 54.67366025 3.75028242 51.99236008 3.76049805 47.5703125 C3.75676682 46.7026123 3.75303558 45.83491211 3.74919128 44.94091797 C3.75332535 44.01166504 3.75745941 43.08241211 3.76171875 42.125 C3.7463049 40.15103475 3.7300017 38.17707627 3.71289062 36.203125 C3.69640808 33.09555095 3.68752616 29.98847374 3.69458008 26.88085938 C3.69719469 23.87833457 3.66912505 20.87732298 3.63671875 17.875 C3.64692551 16.94574707 3.65713226 16.01649414 3.66764832 15.05908203 C3.63807977 9.7128598 3.63807977 9.7128598 0.63989258 5.421875 C-5.88675733 1.90655001 -10.80063065 4.4037337 -15 10 Z " fill="#F4F6F8" transform="translate(135,280)"/>
<path d="M0 0 C2 2 2 2 2.1171875 5.95703125 C2.04789613 7.57605084 1.96665174 9.19459219 1.875 10.8125 C1.85179687 11.62009766 1.82859375 12.42769531 1.8046875 13.25976562 C1.5332382 18.43850936 0.74769702 21.15751687 -3 25 C-3.33 25.70125 -3.66 26.4025 -4 27.125 C-5.25047564 29.46964183 -6.81248236 30.54165491 -9 32 C-9.495 30.515 -9.495 30.515 -10 29 C-9.01 28.67 -8.02 28.34 -7 28 C-7.495 27.01 -7.495 27.01 -8 26 C-8.886875 26.763125 -9.77375 27.52625 -10.6875 28.3125 C-12.65751303 29.96656755 -14.44713542 31.25996245 -16.6875 32.5625 C-19.72306445 34.44947249 -21.25047703 36.9095725 -23.25390625 39.82421875 C-26.01343385 43.75345655 -28.96138073 47.00729078 -32.5625 50.1875 C-33.82900391 51.30898437 -33.82900391 51.30898437 -35.12109375 52.453125 C-36.65204589 53.80750871 -38.18399749 55.16079577 -39.72314453 56.50585938 C-41.5503122 58.12278706 -43.33863084 59.77571012 -45.125 61.4375 C-45.70580322 61.93854248 -46.28660645 62.43958496 -46.88500977 62.95581055 C-49.25517034 65.20544844 -50.82740643 66.86139762 -51.32714844 70.15820312 C-51.31157605 71.82241715 -51.24710746 73.48661251 -51.14404297 75.14770508 C-50.98147278 78.3668704 -51.18162736 81.45146483 -51.4375 84.6640625 C-51.57285156 86.37529297 -51.57285156 86.37529297 -51.7109375 88.12109375 C-51.80632812 89.27738281 -51.90171875 90.43367188 -52 91.625 C-52.09539062 92.81996094 -52.19078125 94.01492187 -52.2890625 95.24609375 C-52.52252418 98.1643648 -52.75957554 101.08229576 -53 104 C-53.33 104 -53.66 104 -54 104 C-54.152775 97.59569038 -54.25747499 91.19185457 -54.32958984 84.78613281 C-54.35966783 82.60952189 -54.40054171 80.43303122 -54.45263672 78.25683594 C-54.5258471 75.11883811 -54.55954688 71.9824493 -54.5859375 68.84375 C-54.61690521 67.87884644 -54.64787292 66.91394287 -54.67977905 65.9197998 C-54.68285782 59.66730357 -53.51147923 56.32700036 -49.29190063 51.66174316 C-47.69311351 49.95606721 -47.69311351 49.95606721 -48 47 C-46.73413086 45.40942383 -46.73413086 45.40942383 -44.96484375 43.70703125 C-44.32337402 43.08046631 -43.6819043 42.45390137 -43.02099609 41.80834961 C-42.33344238 41.14971924 -41.64588867 40.49108887 -40.9375 39.8125 C-39.55162545 38.45752693 -38.16748721 37.10077551 -36.78515625 35.7421875 C-36.12402832 35.0934668 -35.46290039 34.44474609 -34.78173828 33.77636719 C-32.73022943 31.73104266 -30.77592145 29.62334703 -28.875 27.4375 C-28.359375 26.84710938 -27.84375 26.25671875 -27.3125 25.6484375 C-25.96586841 24.03170447 -25.96586841 24.03170447 -24.9375 22.2265625 C-23.875 20.5625 -23.875 20.5625 -21 18 C-17.69623716 17.54222371 -14.44077358 17.43254282 -11.109375 17.296875 C-8.24145427 17.02305342 -6.65812546 16.78995699 -4.3125 15.1875 C-0.91205134 10.5003951 -0.52495698 5.67496592 0 0 Z " fill="#126692" transform="translate(197,112)"/>
<path d="M0 0 C0.70898438 0.49757813 1.41796875 0.99515625 2.1484375 1.5078125 C5.41156902 3.21536899 7.00689155 3.09930322 10.625 2.875 C14.5355049 3.16239855 16.41823552 3.48594909 19.3828125 6.10546875 C20.61791885 7.64833263 21.84661626 9.1990238 22.98828125 10.81225586 C26.20623712 15.2296214 29.5901781 18.32323995 33.9921875 21.5859375 C42.77174309 28.36084794 51.1830262 35.10563079 53.23486328 46.54589844 C54.7454791 58.51731716 54.43002996 70.79662615 53.62963867 82.81762695 C53.58167648 83.55576126 53.53371429 84.29389557 53.48429871 85.05439758 C53 87 53 87 50 90 C50 76.14 50 62.28 50 48 C48.68 47.34 47.36 46.68 46 46 C46 45.34 46 44.68 46 44 C45.34 44 44.68 44 44 44 C44 43.01 44 42.02 44 41 C43.40703125 40.7215625 42.8140625 40.443125 42.203125 40.15625 C35.68917341 36.73758037 31.33997535 31.15822443 26.9921875 25.3671875 C25.03636819 22.87335693 25.03636819 22.87335693 22.2578125 20.8828125 C21.51273437 20.26148438 20.76765625 19.64015625 20 19 C20 18.01 20 17.02 20 16 C19.34 16 18.68 16 18 16 C18 15.34 18 14.68 18 14 C17.34 14 16.68 14 16 14 C15.67 13.34 15.34 12.68 15 12 C12.64328449 11.20180463 10.33786625 10.50852775 7.9375 9.875 C7.27427734 9.69324219 6.61105469 9.51148438 5.92773438 9.32421875 C4.28708521 8.87569596 2.64377551 8.43692614 1 8 C0.67 5.36 0.34 2.72 0 0 Z " fill="#0F5588" transform="translate(315,126)"/>
<path d="M0 0 C1.18435107 2.36870215 1.03902202 3.68616938 0.9375 6.3125 C0.88315981 10.10423768 1.5597427 12.48937284 3 16 C3.17203776 18.69188499 3.09158224 21.29832402 3 24 C3.99902344 24.18175781 4.99804688 24.36351562 6.02734375 24.55078125 C7.31769531 24.80214844 8.60804688 25.05351562 9.9375 25.3125 C11.22527344 25.55613281 12.51304687 25.79976562 13.83984375 26.05078125 C14.88269531 26.36402344 15.92554688 26.67726562 17 27 C17.33 27.99 17.66 28.98 18 30 C18.66 30 19.32 30 20 30 C20 30.66 20 31.32 20 32 C20.66 32 21.32 32 22 32 C22.33 32.99 22.66 33.98 23 35 C24.66304234 36.608969 24.66304234 36.608969 26.6875 38.1875 C29.55665495 40.60389823 31.80600147 42.91651196 33.9375 46 C36.77700372 50.05081555 40.20149264 52.64988185 44.2421875 55.45703125 C45.11230469 56.22080078 45.11230469 56.22080078 46 57 C46 57.99 46 58.98 46 60 C46.66 60 47.32 60 48 60 C48 60.66 48 61.32 48 62 C48.639375 62.144375 49.27875 62.28875 49.9375 62.4375 C52 63 52 63 53 64 C53.10030011 66.01622141 53.13081462 68.03597383 53.1328125 70.0546875 C53.13474609 71.93800781 53.13474609 71.93800781 53.13671875 73.859375 C53.13462402 74.52001953 53.1325293 75.18066406 53.13037109 75.86132812 C53.12511463 77.83202538 53.13079482 79.80274214 53.13671875 81.7734375 C53.12913128 89.23950442 52.84842151 96.58066022 52 104 C51.67 104 51.34 104 51 104 C51 100.7 51 97.4 51 94 C50.34 94 49.68 94 49 94 C49.02094727 93.23333008 49.04189453 92.46666016 49.06347656 91.67675781 C49.14665158 88.2013054 49.19866575 84.72606237 49.25 81.25 C49.28351563 80.0434375 49.31703125 78.836875 49.3515625 77.59375 C49.36445313 76.43359375 49.37734375 75.2734375 49.390625 74.078125 C49.41157227 73.00981445 49.43251953 71.94150391 49.45410156 70.84082031 C48.89305059 67.33093371 47.60860263 66.30428715 45 64 C45 63.34 45 62.68 45 62 C44.34 62 43.68 62 43 62 C43 61.34 43 60.68 43 60 C42.34 60 41.68 60 41 60 C39.58984375 58.56640625 39.58984375 58.56640625 37.9375 56.5625 C30.4567019 47.7217234 30.4567019 47.7217234 21.4375 40.5625 C20.633125 40.046875 19.82875 39.53125 19 39 C19 38.34 19 37.68 19 37 C18.34 37 17.68 37 17 37 C17 36.34 17 35.68 17 35 C16.443125 34.938125 15.88625 34.87625 15.3125 34.8125 C11.99913528 33.64834483 10.29524704 31.60541556 8 29 C7.67 28.01 7.34 27.02 7 26 C6.34 26 5.68 26 5 26 C4.67 26.99 4.34 27.98 4 29 C-0.48300326 25.04752967 -2.64213936 19.7252105 -4 14 C-3.06213365 3.06213365 -3.06213365 3.06213365 0 0 Z " fill="#166BA5" transform="translate(313,110)"/>
<path d="M0 0 C2 2 2 2 2.1171875 5.95703125 C2.04789613 7.57605084 1.96665174 9.19459219 1.875 10.8125 C1.85179687 11.62009766 1.82859375 12.42769531 1.8046875 13.25976562 C1.5332382 18.43850936 0.74769702 21.15751687 -3 25 C-3.33 25.70125 -3.66 26.4025 -4 27.125 C-5.25047564 29.46964183 -6.81248236 30.54165491 -9 32 C-9.495 30.515 -9.495 30.515 -10 29 C-9.01 28.67 -8.02 28.34 -7 28 C-7.495 27.01 -7.495 27.01 -8 26 C-8.886875 26.763125 -9.77375 27.52625 -10.6875 28.3125 C-12.65751303 29.96656755 -14.44713542 31.25996245 -16.6875 32.5625 C-19.72306445 34.44947249 -21.25047703 36.9095725 -23.25390625 39.82421875 C-26.01343385 43.75345655 -28.96138073 47.00729078 -32.5625 50.1875 C-33.82900391 51.30898437 -33.82900391 51.30898437 -35.12109375 52.453125 C-36.65204589 53.80750871 -38.18399749 55.16079577 -39.72314453 56.50585938 C-47.11436279 62.58199004 -47.11436279 62.58199004 -51.7890625 70.59765625 C-51.80361692 73.00309202 -51.80361692 73.00309202 -51.390625 75.3671875 C-50.89464104 78.71011941 -51.19512457 81.76411134 -51.5 85.125 C-51.5928125 86.24132812 -51.685625 87.35765625 -51.78125 88.5078125 C-51.8534375 89.33023438 -51.925625 90.15265625 -52 91 C-52.33 91 -52.66 91 -53 91 C-53.1238616 86.94343719 -53.21445733 82.88761022 -53.2746582 78.82958984 C-53.2997593 77.45016298 -53.33384873 76.07086858 -53.37719727 74.69189453 C-53.43802875 72.70664128 -53.46357937 70.72040641 -53.48828125 68.734375 C-53.51446533 67.54038086 -53.54064941 66.34638672 -53.56762695 65.11621094 C-53 62 -53 62 -50.57324219 59.70629883 C-49.2994873 58.86168091 -49.2994873 58.86168091 -48 58 C-46.32916266 56.00648415 -46.32916266 56.00648415 -44.9375 53.9375 C-42.91452173 51.01791086 -41.00065966 48.93805182 -38 47 C-37.34 47 -36.68 47 -36 47 C-35.731875 46.4225 -35.46375 45.845 -35.1875 45.25 C-33.97070811 42.94449957 -32.69666121 40.97943808 -31 39 C-30.34 39 -29.68 39 -29 39 C-28.67 38.01 -28.34 37.02 -28 36 C-26.3540349 34.31288577 -24.68762851 32.6454378 -23 31 C-22.67 30.34 -22.34 29.68 -22 29 C-21.34 29 -20.68 29 -20 29 C-19.505 27.515 -19.505 27.515 -19 26 C-16.234375 24.71875 -16.234375 24.71875 -12.75 23.5 C-6.55736816 21.36938391 -6.55736816 21.36938391 -1 18 C-0.43321549 16.03080686 -0.43321549 16.03080686 -0.75 13.875 C-1.03161384 9.11103251 -0.60111853 4.73380839 0 0 Z " fill="#1A73A0" transform="translate(197,112)"/>
<path d="M0 0 C0.33 0 0.66 0 1 0 C1.50367983 6.16408176 0.10931178 9.67345696 -2.9375 14.8125 C-3.34137939 15.51028564 -3.74525879 16.20807129 -4.16137695 16.92700195 C-9.04673625 25.1127938 -16.18930209 35.28021634 -25.3671875 38.9453125 C-28.07118043 40.02851441 -30.38100345 41.37549429 -32.875 42.875 C-52.13755469 53.28237763 -75.76436547 51.92244602 -97 50 C-97 49.67 -97 49.34 -97 49 C-92.10712054 48.7133272 -87.21413567 48.42855133 -82.32104492 48.14550781 C-80.65760337 48.04902011 -78.99419142 47.95202047 -77.33081055 47.85449219 C-74.93546081 47.71413687 -72.5400095 47.57564251 -70.14453125 47.4375 C-69.4047554 47.39375244 -68.66497955 47.35000488 -67.90278625 47.30493164 C-64.98593464 47.13816453 -62.09671291 46.9983955 -59.17456055 47.046875 C-56.53136466 46.98989806 -54.62599369 46.07717128 -52.2578125 44.96484375 C-49.37642239 43.73352306 -46.41892667 42.83879453 -43.4375 41.875 C-22.81461643 34.48312869 -9.62744904 19.25489807 0 0 Z " fill="#495D79" transform="translate(419,374)"/>
<path d="M0 0 C0.66 0.33 1.32 0.66 2 1 C1.57457916 1.44734497 1.14915833 1.89468994 0.71084595 2.35559082 C-4.30939004 8.19951592 -4.8263016 12.6816152 -4.6640625 20.21875 C-4.670392 21.80471985 -4.670392 21.80471985 -4.67684937 23.42272949 C-4.68766768 26.78254494 -4.65972985 30.14036962 -4.625 33.5 C-4.60088399 36.85936055 -4.5858025 40.21782774 -4.59457397 43.57727051 C-4.59911879 45.66090025 -4.5847036 47.74468717 -4.54824829 49.82800293 C-4.55085002 56.8740782 -5.72429461 62.31085085 -10.49111938 67.67932129 C-13.58940192 70.39115663 -18.05334473 70.0950238 -22 70 C-27.31093374 67.99364725 -30.58543628 63.44333733 -33.375 58.625 C-34.27381539 54.84997536 -33.64703206 51.81748918 -33 48 C-32.34 48 -31.68 48 -31 48 C-30.62875 48.9075 -30.2575 49.815 -29.875 50.75 C-27.67912612 54.55618139 -25.89673289 56.01343029 -22 58 C-18.03593282 58.66067786 -16.38049922 58.20144076 -12.8125 56.3125 C-9.47265847 53.56640808 -7.29916066 51.3698381 -6.73834229 46.92724609 C-6.63961422 44.37416606 -6.63764868 41.83609283 -6.6640625 39.28125 C-6.6515539 37.36067368 -6.63851696 35.44010074 -6.625 33.51953125 C-6.62106556 30.50427339 -6.62505157 27.48934756 -6.63964844 24.47412109 C-6.64821821 21.55516152 -6.62654286 18.63758757 -6.6015625 15.71875 C-6.61490631 14.81966919 -6.62825012 13.92058838 -6.64199829 12.9942627 C-6.58816729 8.43065697 -6.4976842 6.61226251 -3.52490234 2.95507812 C-2.69168457 2.30990234 -1.8584668 1.66472656 -1 1 C-0.67 0.67 -0.34 0.34 0 0 Z " fill="#244A72" transform="translate(148,161)"/>
<path d="M0 0 C0.66 0 1.32 0 2 0 C2.08378906 1.26585937 2.16757812 2.53171875 2.25390625 3.8359375 C2.88334119 9.48868363 4.80504143 14.38632302 6.9375 19.625 C13.6704549 36.48749884 13.6704549 36.48749884 12 42 C12.66 42 13.32 42 14 42 C15.60355101 45.50776784 16.22036864 48.14354879 16 52 C16.66 52 17.32 52 18 52 C18.91297308 56.97063121 18.91297308 61.02936879 18 66 C17.34 66 16.68 66 16 66 C15.84144531 65.42894531 15.68289063 64.85789062 15.51953125 64.26953125 C13.70047206 57.94804931 11.45233309 51.88350285 8.98828125 45.78515625 C8 43 8 43 8 40 C7.34 40 6.68 40 6 40 C4.85122578 36.751032 3.70649699 33.50065288 2.5625 30.25 C2.23701172 29.32960937 1.91152344 28.40921875 1.57617188 27.4609375 C1.26357422 26.57148438 0.95097656 25.68203125 0.62890625 24.765625 C0.34088135 23.94868164 0.05285645 23.13173828 -0.24389648 22.29003906 C-2.79219172 14.57192177 -2.61424921 7.67935706 0 0 Z " fill="#236DA1" transform="translate(264,176)"/>
<path d="M0 0 C2.93643262 1.46821631 3.1062352 3.39197489 4.2578125 6.4375 C4.71067627 7.6224707 5.16354004 8.80744141 5.63012695 10.02832031 C6.12843608 11.35220673 6.6267265 12.67610018 7.125 14 C7.92078144 16.09077962 8.71914038 18.18056404 9.51759338 20.27032471 C10.09003496 21.76900347 10.66165651 23.26799567 11.23252869 24.76727295 C13.4921484 30.69578398 15.79088388 36.60837613 18.10546875 42.515625 C18.45432129 43.4063269 18.80317383 44.29702881 19.16259766 45.21472168 C20.54648162 48.7467884 21.93101351 52.27859812 23.31768799 55.80957031 C25.2405293 60.70818926 27.15152768 65.61110558 29.04351807 70.52172852 C29.70275132 72.22982033 30.36534796 73.93661657 31.03070068 75.64233398 C32.04603217 78.25218293 33.04621082 80.86738471 34.04296875 83.484375 C34.35559158 84.28087463 34.66821442 85.07737427 34.99031067 85.89801025 C35.4092585 87.01148834 35.4092585 87.01148834 35.83666992 88.14746094 C36.08623947 88.79680603 36.33580902 89.44615112 36.59294128 90.11517334 C37.08101138 92.37511149 36.70847837 93.82373142 36 96 C33.50737633 89.54341721 31.02732527 83.08239532 28.57595825 76.61004639 C27.4454058 73.62519679 26.31195169 70.64145188 25.1784668 67.65771484 C24.59454226 66.11847198 24.01188743 64.57874693 23.43041992 63.03857422 C22.57817376 60.7821962 21.72119307 58.52766638 20.86328125 56.2734375 C20.60492996 55.58599457 20.34657867 54.89855164 20.08039856 54.1902771 C18.93447719 51.19129448 17.79077009 48.68615513 16 46 C16.42880217 49.57335138 16.92424773 52.78536858 18.125 56.1875 C19.05085398 59.16345922 18.87296946 60.12903705 18 63 C9.49854084 42.6303467 9.49854084 42.6303467 7.5703125 33.41015625 C7.05235693 30.92380425 7.05235693 30.92380425 5.90625 28.40625 C4.63843987 25.03999552 5.36514858 22.49168283 6 19 C6 17.68 6 16.36 6 15 C5.34 15 4.68 15 4 15 C3.34 11.7 2.68 8.4 2 5 C1.34 5 0.68 5 0 5 C0 3.35 0 1.7 0 0 Z " fill="#2D4867" transform="translate(276,213)"/>
<path d="M0 0 C1.85321247 0.66162048 3.66328633 1.44181984 5.4609375 2.2421875 C15.47628864 6.38427334 26.23384651 6.9901515 36.94921875 7.3515625 C38.68481552 7.4127124 38.68481552 7.4127124 40.45547485 7.47509766 C56.47266764 7.97568834 72.49688419 7.835976 88.51953125 7.765625 C94.0359315 7.74183656 99.55230514 7.72163407 105.06874466 7.70968628 C107.2452008 7.70326591 109.42156547 7.69078902 111.59799194 7.67797852 C112.91191925 7.67467529 114.22584656 7.67137207 115.57958984 7.66796875 C116.73059174 7.66273193 117.88159363 7.65749512 119.06747437 7.65209961 C121.88363581 7.75599949 124.40784903 8.1188128 127.14453125 8.765625 C127.14453125 9.095625 127.14453125 9.425625 127.14453125 9.765625 C112.53207245 9.81240122 97.91962359 9.84764136 83.30710506 9.86924934 C76.52184988 9.87955017 69.73664129 9.89358761 62.95141602 9.91650391 C56.40269203 9.93861085 49.85399827 9.95019587 43.30523872 9.95537949 C40.80741171 9.95907337 38.30958733 9.96628656 35.81178093 9.97708511 C32.31188112 9.99161347 28.81218099 9.99360235 25.31225586 9.99267578 C23.76505608 10.00346161 23.76505608 10.00346161 22.18659973 10.01446533 C16.7552257 9.99891734 12.28230313 9.5423787 7.14453125 7.765625 C6.43683594 7.60964844 5.72914063 7.45367187 5 7.29296875 C2.61140741 6.61410559 0.62422766 5.53530713 -1.54296875 4.328125 C-2.33058594 3.89628906 -3.11820312 3.46445312 -3.9296875 3.01953125 C-5.85546875 1.765625 -5.85546875 1.765625 -6.85546875 -0.234375 C-4.2179605 -1.55312913 -2.73265784 -0.79355872 0 0 Z " fill="#73525F" transform="translate(128.85546875,414.234375)"/>
<path d="M0 0 C4.08647825 4.08647825 3.98975792 11.76007039 4.15429688 17.34912109 C3.62474671 26.44699404 -0.8889968 35.19828807 -4.5078125 43.4296875 C-6.43239776 48.03458523 -8.06087399 52.72062415 -9.6875 57.4375 C-10.16799805 58.82098633 -10.16799805 58.82098633 -10.65820312 60.23242188 C-11.44105772 62.4875105 -12.22159879 64.74337114 -13 67 C-13.33 67 -13.66 67 -14 67 C-13.60483624 62.09996941 -13.02020527 57.78352873 -11.4375 53.125 C-10.26457178 49.53028348 -9.94598919 46.78417215 -10.22265625 43.02734375 C-10.31962463 35.84807012 -7.71364814 29.98325936 -5 23.4375 C-1.68993403 15.42624573 0.8977392 8.75919148 0 0 Z " fill="#177499" transform="translate(241,173)"/>
<path d="M0 0 C1.18435107 2.36870215 1.03902202 3.68616938 0.9375 6.3125 C0.88315981 10.10423768 1.5597427 12.48937284 3 16 C3.17203776 18.69188499 3.09158224 21.29832402 3 24 C3.99902344 24.18175781 4.99804688 24.36351562 6.02734375 24.55078125 C7.31769531 24.80214844 8.60804688 25.05351562 9.9375 25.3125 C11.22527344 25.55613281 12.51304687 25.79976562 13.83984375 26.05078125 C14.88269531 26.36402344 15.92554688 26.67726562 17 27 C17.33 27.99 17.66 28.98 18 30 C18.66 30 19.32 30 20 30 C20 30.66 20 31.32 20 32 C20.66 32 21.32 32 22 32 C22.6509259 33.24735567 23.29551669 34.49801832 23.9375 35.75 C24.29714844 36.44609375 24.65679687 37.1421875 25.02734375 37.859375 C25.95558182 39.90224433 26.53166578 41.81115376 27 44 C25.66144944 43.21718695 24.32926356 42.42348123 23 41.625 C22.2575 41.18414062 21.515 40.74328125 20.75 40.2890625 C20.1725 39.86367187 19.595 39.43828125 19 39 C19 38.34 19 37.68 19 37 C18.34 37 17.68 37 17 37 C17 36.34 17 35.68 17 35 C16.443125 34.938125 15.88625 34.87625 15.3125 34.8125 C11.99913528 33.64834483 10.29524704 31.60541556 8 29 C7.67 28.01 7.34 27.02 7 26 C6.34 26 5.68 26 5 26 C4.67 26.99 4.34 27.98 4 29 C-0.48300326 25.04752967 -2.64213936 19.7252105 -4 14 C-3.06213365 3.06213365 -3.06213365 3.06213365 0 0 Z " fill="#1681B0" transform="translate(313,110)"/>
<path d="M0 0 C2 2 2 2 2.1171875 5.95703125 C2.04789613 7.57605084 1.96665174 9.19459219 1.875 10.8125 C1.85179687 11.62009766 1.82859375 12.42769531 1.8046875 13.25976562 C1.5332382 18.43850936 0.74769702 21.15751687 -3 25 C-3.33 25.70125 -3.66 26.4025 -4 27.125 C-5.25047564 29.46964183 -6.81248236 30.54165491 -9 32 C-9.33 31.01 -9.66 30.02 -10 29 C-9.01 28.67 -8.02 28.34 -7 28 C-7.33 27.34 -7.66 26.68 -8 26 C-8.886875 26.763125 -9.77375 27.52625 -10.6875 28.3125 C-12.65751303 29.96656755 -14.44713542 31.25996245 -16.6875 32.5625 C-19.75763748 34.47096384 -21.29961498 36.97937994 -23.32421875 39.9296875 C-26.90045747 45.03274447 -30.83445521 48.53882278 -36 52 C-34.15147768 48.23634193 -32.09496432 44.63127149 -30 41 C-29.34 41 -28.68 41 -28 41 C-27.65195313 40.17048828 -27.65195313 40.17048828 -27.296875 39.32421875 C-25.6491953 36.37129881 -23.60948238 34.23275693 -21.25 31.8125 C-20.40953125 30.93207031 -19.5690625 30.05164063 -18.703125 29.14453125 C-15.69458386 26.75769731 -13.78260164 26.28203609 -10 26 C-10 25.01 -10 24.02 -10 23 C-7.03 21.35 -4.06 19.7 -1 18 C-1.020625 16.700625 -1.04125 15.40125 -1.0625 14.0625 C-1.07004972 9.30617675 -0.59887117 4.71611047 0 0 Z " fill="#1E8EB7" transform="translate(197,112)"/>
<path d="M0 0 C1.24662187 3.73986561 0.71956219 4.5306194 -1 8 C-2.38059346 10.039698 -3.82350815 12.03803427 -5.3125 14 C-6.07175781 15.010625 -6.83101563 16.02125 -7.61328125 17.0625 C-20.19038355 32.54201053 -38.79321884 43.92195961 -58.76953125 46.33447266 C-64.6857613 46.93729777 -70.60819385 47.39489028 -76.54321289 47.76635742 C-79.08059713 48.00766486 -81.51084819 48.45868663 -84 49 C-83.67 48.01 -83.34 47.02 -83 46 C-81.5459375 45.94392578 -81.5459375 45.94392578 -80.0625 45.88671875 C-59.03311977 44.9248154 -35.04020188 41.16821702 -20 25 C-17.38750363 22.64218094 -14.7510042 20.31338388 -12.109375 17.98828125 C-9.94486736 16.17649554 -9.94486736 16.17649554 -9 14 C-8.34 14 -7.68 14 -7 14 C-6.773125 13.360625 -6.54625 12.72125 -6.3125 12.0625 C-4.51434174 7.86679739 -2.26095979 3.96099444 0 0 Z " fill="#587591" transform="translate(425,388)"/>
<path d="M0 0 C0.66 0 1.32 0 2 0 C1.59605413 7.51146958 -0.99584386 14.17506092 -3.61035156 21.14624023 C-4.37573941 23.18947388 -5.12629053 25.23771321 -5.875 27.28710938 C-11.25427562 41.83618375 -11.25427562 41.83618375 -16 45 C-16.99 44.67 -17.98 44.34 -19 44 C-18.62053223 43.50113281 -18.24106445 43.00226563 -17.85009766 42.48828125 C-13.23650026 36.05781832 -10.78206968 29.49630271 -8.375 22 C-5.91093184 14.48717679 -3.40811007 7.14387867 0 0 Z " fill="#F6F8F9" transform="translate(204,272)"/>
<path d="M0 0 C0.33 0 0.66 0 1 0 C1.50367983 6.16408176 0.10931178 9.67345696 -2.9375 14.8125 C-3.34137939 15.51028564 -3.74525879 16.20807129 -4.16137695 16.92700195 C-7.75785183 22.95316972 -11.94751212 28.11910605 -17 33 C-17.58007812 33.5775 -18.16015625 34.155 -18.7578125 34.75 C-20.3125 36.1875 -20.3125 36.1875 -23 38 C-25.16796875 37.61328125 -25.16796875 37.61328125 -27 37 C-26.44570313 36.63648438 -25.89140625 36.27296875 -25.3203125 35.8984375 C-24.59585937 35.39570313 -23.87140625 34.89296875 -23.125 34.375 C-22.40570313 33.88773437 -21.68640625 33.40046875 -20.9453125 32.8984375 C-18.47467599 30.4873344 -18.0289694 28.26531821 -17 25 C-15.3359375 22.68359375 -15.3359375 22.68359375 -13.375 20.4375 C-8.16817037 14.18359312 -3.64435226 7.28870451 0 0 Z " fill="#2B354B" transform="translate(419,374)"/>
<path d="M0 0 C1.36511719 1.2065625 1.36511719 1.2065625 2.7578125 2.4375 C5.01200654 4.39529876 7.27305173 6.19191131 9.71777344 7.91015625 C19.41318635 14.75096852 29.05591407 22.25624709 31.20507812 34.52929688 C31.97054377 40.76404521 32.14638096 46.97342038 32.125 53.25 C32.1198941 54.82080322 32.1198941 54.82080322 32.11468506 56.42333984 C32.05771975 61.22006292 31.91348024 66.01378541 31.61376953 70.80175781 C31.56882355 71.54290833 31.52387756 72.28405884 31.47756958 73.04766846 C30.88866741 75.45513395 29.86528721 76.42061056 28 78 C28.00666183 77.44956024 28.01332367 76.89912048 28.02018738 76.33200073 C28.08669522 70.58923194 28.13186455 64.84657305 28.16479492 59.10351562 C28.17985641 56.96186883 28.20030972 54.82025276 28.22631836 52.67871094 C28.26281728 49.59562589 28.27975302 46.51294962 28.29296875 43.4296875 C28.30845261 42.47633514 28.32393646 41.52298279 28.33988953 40.54074097 C28.3412169 35.26575739 27.99413628 31.54653429 25 27 C23.69855198 25.95884159 22.37202131 24.94622159 21 24 C21 23.34 21 22.68 21 22 C20.34 22 19.68 22 19 22 C16.875 20.125 16.875 20.125 15 18 C15 17.34 15 16.68 15 16 C14.34 16 13.68 16 13 16 C13 15.34 13 14.68 13 14 C12.4225 13.773125 11.845 13.54625 11.25 13.3125 C8.40408619 11.65238361 7.00158079 9.60812043 5 7 C4.0925 6.113125 3.185 5.22625 2.25 4.3125 C0 2 0 2 0 0 Z " fill="#1B4B79" transform="translate(337,138)"/>
<path d="M0 0 C3.30008004 3.30008004 2.88595208 7.54176327 3 12 C2.84722241 15.71031289 2.63819766 19.41169838 2.40698242 23.11767578 C1.84105385 33.0516628 1.94722383 42.98679423 2.03735352 52.93212891 C2.07805502 59.38983728 2.04685332 65.62073757 1 72 C0.67 72 0.34 72 0 72 C0 48.24 0 24.48 0 0 Z " fill="#4E6D8D" transform="translate(425,284)"/>
<path d="M0 0 C2 2 2 2 2.16015625 4.328125 C2.12792969 5.29234375 2.09570312 6.2565625 2.0625 7.25 C1.97905901 11.89488187 2.12727237 16.43148688 2.5 21.0625 C3.72358363 36.8292491 3.72358363 36.8292491 2 42 C3.25473409 44.00624486 3.25473409 44.00624486 5.125 45.9375 C6.09953125 47.00097656 6.09953125 47.00097656 7.09375 48.0859375 C9.03859868 50.11606994 9.03859868 50.11606994 11.625 52.0625 C14.32478871 54.26495921 15.98515226 56.61910783 17.88671875 59.51171875 C18.94616763 61.15989263 18.94616763 61.15989263 21 62 C20.67 62.99 20.34 63.98 20 65 C15.07298519 60.20776675 10.46651712 55.22181542 6 50 C5.51337387 49.54124985 5.02674774 49.08249969 4.52537537 48.60984802 C0.39706084 44.45517028 -0.68284511 41.47173527 -0.67977905 35.65089417 C-0.64881134 34.74645065 -0.61784363 33.84200714 -0.5859375 32.91015625 C-0.57744781 31.96563095 -0.56895813 31.02110565 -0.56021118 30.04795837 C-0.52680868 27.05161112 -0.45155523 24.05802411 -0.375 21.0625 C-0.34488335 19.02282552 -0.31751053 16.98310855 -0.29296875 14.94335938 C-0.22706051 9.96118726 -0.12363098 4.98106046 0 0 Z " fill="#3D404E" transform="translate(142,288)"/>
<path d="M0 0 C0.33 0 0.66 0 1 0 C1.00364563 0.62116699 1.00729126 1.24233398 1.01104736 1.88232422 C1.05299342 8.37195693 1.1224238 14.86089037 1.20751953 21.35009766 C1.23567231 23.76897168 1.25691502 26.18793673 1.27099609 28.60693359 C1.29250367 32.09259449 1.33919693 35.57716752 1.390625 39.0625 C1.39185364 40.13677246 1.39308228 41.21104492 1.39434814 42.31787109 C1.52173924 48.91045804 2.57812889 53.38562248 6 59 C6.67667315 60.32828298 7.34596002 61.66042771 8 63 C7.34 63 6.68 63 6 63 C5.34 62.01 4.68 61.02 4 60 C3.505 62.475 3.505 62.475 3 65 C0.52787706 62.06605189 -0.53887671 59.76207158 -1.25 56 C-1.42015625 55.154375 -1.5903125 54.30875 -1.765625 53.4375 C-2 51 -2 51 -1.52748108 49.14569092 C-0.94620957 46.78119094 -0.84047111 44.6650363 -0.79467773 42.23144531 C-0.77473251 41.29077209 -0.75478729 40.35009888 -0.73423767 39.38092041 C-0.71752518 38.37349792 -0.70081268 37.36607544 -0.68359375 36.328125 C-0.66281265 35.29057068 -0.64203156 34.25301636 -0.62062073 33.184021 C-0.55528592 29.87274742 -0.49631483 26.56139518 -0.4375 23.25 C-0.39429951 21.00389815 -0.35068473 18.75780422 -0.30664062 16.51171875 C-0.19962097 11.00789543 -0.09782478 5.50399402 0 0 Z " fill="#493D46" transform="translate(115,289)"/>
<path d="M0 0 C0.33 1.32 0.66 2.64 1 4 C-0.1196986 5.00593243 -1.2459412 6.0045849 -2.375 7 C-3.31472656 7.8353125 -3.31472656 7.8353125 -4.2734375 8.6875 C-6 10 -6 10 -8 10 C-8.21914063 10.61230469 -8.43828125 11.22460938 -8.6640625 11.85546875 C-10.4710436 14.75614894 -12.18005729 15.20326386 -15.375 16.3125 C-16.33148438 16.65925781 -17.28796875 17.00601562 -18.2734375 17.36328125 C-21.02799478 18.00653746 -22.3836568 17.96097914 -25 17 C-25 16.34 -25 15.68 -25 15 C-24.48953125 14.79246094 -23.9790625 14.58492188 -23.453125 14.37109375 C-15.04933208 10.809912 -6.26067862 6.78116259 0 0 Z " fill="#293147" transform="translate(400,401)"/>
<path d="M0 0 C4.05535919 4.05535919 3.90714536 11.89413997 4.12011719 17.46044922 C3.7941117 24.35294727 0.78634074 30.78189496 -2 37 C-2.33 37 -2.66 37 -3 37 C-3.09765625 30.84765625 -3.09765625 30.84765625 -3 29 C-2.67 28.67 -2.34 28.34 -2 28 C-1.76807135 26.48530552 -1.58784762 24.96245438 -1.4375 23.4375 C-1.35371094 22.61121094 -1.26992187 21.78492188 -1.18359375 20.93359375 C-1.12300781 20.29550781 -1.06242188 19.65742188 -1 19 C-1.66 18.67 -2.32 18.34 -3 18 C-2.505 16.88625 -2.01 15.7725 -1.5 14.625 C0.36706789 9.73380807 0.28600529 5.1692808 0 0 Z " fill="#1590B3" transform="translate(241,173)"/>
<path d="M0 0 C3.5079769 3.10321034 5.82231698 6.66838378 8.35546875 10.5546875 C11.56802481 15.33155233 14.98382361 20.05398359 19.1328125 24.05859375 C21.4704427 26.4891423 22.12243227 28.78225167 23 32 C21.02 31.01 19.04 30.02 17 29 C17 28.01 17 27.02 17 26 C16.34 26 15.68 26 15 26 C13.7109375 24.5390625 13.7109375 24.5390625 12.375 22.625 C11.92898437 21.99851562 11.48296875 21.37203125 11.0234375 20.7265625 C10 19 10 19 10 17 C9.34 17 8.68 17 8 17 C8 16.34 8 15.68 8 15 C7.34 15 6.68 15 6 15 C4.99539469 12.87717331 3.99644398 10.75166979 3 8.625 C2.443125 7.44164062 1.88625 6.25828125 1.3125 5.0390625 C0 2 0 2 0 0 Z " fill="#A85A53" transform="translate(90,376)"/>
<path d="M0 0 C0.495 0.99 0.495 0.99 1 2 C-1.5883091 8.38988809 -4.85604247 12.26512223 -10 16.75 C-11.3391162 17.9536446 -12.67632614 19.15941306 -14.01171875 20.3671875 C-15.01211182 21.26775879 -15.01211182 21.26775879 -16.03271484 22.18652344 C-19.59541712 25.47068234 -22.96425074 28.9488414 -26.31835938 32.44433594 C-27.51000528 33.66531209 -28.75076137 34.83801654 -30 36 C-30.66 36 -31.32 36 -32 36 C-32 35.34 -32 34.68 -32 34 C-30.71484375 32.7734375 -30.71484375 32.7734375 -28.9375 31.375 C-26.28436289 29.18166952 -24.01587691 26.95546688 -21.8125 24.3125 C-18.79277393 20.73255325 -15.44126936 17.65503889 -11.9375 14.5625 C-7.04026005 10.21613325 -3.21803845 5.7162525 0 0 Z " fill="#202737" transform="translate(392,342)"/>
<path d="M0 0 C3.53529812 1.47238474 5.47404006 3.41000759 7.9375 6.3125 C10.1969876 8.95137918 12.36781058 11.33650755 14.9375 13.6875 C17.40439574 16.45341341 17.74554112 18.352756 18 22 C3.82525698 10.13950073 3.82525698 10.13950073 2 4 C1.34786461 2.65949948 0.68620031 1.32338632 0 0 Z " fill="#1374AB" transform="translate(336,146)"/>
<path d="M0 0 C0.99 0.495 0.99 0.495 2 1 C1.01 1.495 1.01 1.495 0 2 C0 1.34 0 0.68 0 0 Z M-1 2 C-1 5.63787651 -1.67888836 6.13064655 -4.0625 8.75 C-4.69414062 9.45898438 -5.32578125 10.16796875 -5.9765625 10.8984375 C-8 13 -8 13 -10.0234375 14.7265625 C-13.71674408 17.83651391 -13.71674408 17.83651391 -15.40234375 22.203125 C-15.38368532 23.85572866 -15.30683341 25.50843905 -15.1796875 27.15625 C-14.96639035 30.53190932 -15.21438366 33.75619186 -15.5 37.125 C-15.5928125 38.24132812 -15.685625 39.35765625 -15.78125 40.5078125 C-15.8534375 41.33023438 -15.925625 42.15265625 -16 43 C-16.33 43 -16.66 43 -17 43 C-17.1457733 38.95871548 -17.23423181 34.91811094 -17.3125 30.875 C-17.35439453 29.73289063 -17.39628906 28.59078125 -17.43945312 27.4140625 C-17.57759506 17.90989739 -17.57759506 17.90989739 -14.61328125 14.265625 C-12.3759434 12.32593001 -10.63383722 11.22912404 -8 10 C-6.98758315 8.67607028 -5.98560611 7.34400833 -5 6 C-4.34 6 -3.68 6 -3 6 C-2.34 4.68 -1.68 3.36 -1 2 Z " fill="#1D84B2" transform="translate(161,160)"/>
<path d="M0 0 C1.18435107 2.36870215 1.03902202 3.68616938 0.9375 6.3125 C0.88323646 10.09286028 1.52958481 12.50776392 3 16 C3.07646165 18.3320802 3.09143299 20.66845878 3 23 C1.12109375 22.7734375 1.12109375 22.7734375 -1 22 C-3.46594842 17.93745446 -4.23310337 13.59523784 -3.55078125 8.92578125 C-1.58314732 1.58314732 -1.58314732 1.58314732 0 0 Z " fill="#2597BE" transform="translate(313,110)"/>
<path d="M0 0 C0.66 0 1.32 0 2 0 C2.19627391 1.58226965 2.38165538 3.16589271 2.5625 4.75 C2.66691406 5.63171875 2.77132813 6.5134375 2.87890625 7.421875 C2.99603955 9.91568083 2.67664525 11.62433311 2 14 C1.81936328 18.78687299 2.22877737 23.27626141 3 28 C-1.76484748 22.80198457 -2.34391833 15.94557968 -2.203125 9.1875 C-1.90109919 5.93491435 -1.0513144 3.08823606 0 0 Z " fill="#2085BA" transform="translate(264,176)"/>
<path d="M0 0 C2 2 2 2 2.1171875 5.95703125 C2.04789613 7.57605084 1.96665174 9.19459219 1.875 10.8125 C1.84019531 12.02389648 1.84019531 12.02389648 1.8046875 13.25976562 C1.5332382 18.43850936 0.74769702 21.15751687 -3 25 C-3.33 25.70125 -3.66 26.4025 -4 27.125 C-5.25047564 29.46964183 -6.81248236 30.54165491 -9 32 C-9.33 31.01 -9.66 30.02 -10 29 C-9.01 28.67 -8.02 28.34 -7 28 C-6.62243192 26.67851173 -6.2981424 25.34164079 -6 24 C-3.44444444 19.22222222 -3.44444444 19.22222222 -1 18 C-1.020625 16.700625 -1.04125 15.40125 -1.0625 14.0625 C-1.07004972 9.30617675 -0.59887117 4.71611047 0 0 Z " fill="#1AA5C5" transform="translate(197,112)"/>
<path d="M0 0 C0.66 0.33 1.32 0.66 2 1 C1.57621063 1.46438477 1.15242126 1.92876953 0.71578979 2.40722656 C-3.85405592 7.84934131 -4.87918368 11.74158458 -4.8046875 18.75 C-4.81839386 19.64871826 -4.83210022 20.54743652 -4.84622192 21.47338867 C-4.8833184 24.31611119 -4.87982097 27.15707114 -4.875 30 C-4.89314109 31.93882914 -4.9139482 33.87763528 -4.9375 35.81640625 C-4.98916003 40.5445635 -5.00444401 45.27157615 -5 50 C-5.33 50 -5.66 50 -6 50 C-6.12372902 43.82535087 -6.21440144 37.65142544 -6.2746582 31.47583008 C-6.29978051 29.3757673 -6.33388458 27.27579177 -6.37719727 25.17602539 C-6.43794871 22.1548916 -6.46623263 19.13491504 -6.48828125 16.11328125 C-6.51408768 15.17664139 -6.5398941 14.24000153 -6.56648254 13.27497864 C-6.56848343 8.60975036 -6.54541889 6.67836103 -3.53198242 2.93041992 C-2.69642822 2.29338135 -1.86087402 1.65634277 -1 1 C-0.67 0.67 -0.34 0.34 0 0 Z " fill="#105272" transform="translate(148,161)"/>
<path d="M0 0 C3.68734775 -0.08776185 7.37442347 -0.14064603 11.0625 -0.1875 C12.62000977 -0.22520508 12.62000977 -0.22520508 14.20898438 -0.26367188 C20.28513598 -0.32153999 24.66237597 0.00890268 30 3 C30.66 3.66 31.32 4.32 32 5 C31.67 5.99 31.34 6.98 31 8 C30.443125 7.0409375 30.443125 7.0409375 29.875 6.0625 C26.43636066 2.27999672 21.23714964 2.92555324 16.3828125 2.68359375 C14.29702693 2.59778612 12.21107877 2.51585641 10.125 2.4375 C9.05507812 2.39431641 7.98515625 2.35113281 6.8828125 2.30664062 C4.25532246 2.20107183 1.62774578 2.09896209 -1 2 C-0.67 1.34 -0.34 0.68 0 0 Z " fill="#76E6ED" transform="translate(165,104)"/>
<path d="M0 0 C1.24662187 3.73986561 0.71956219 4.5306194 -1 8 C-2.38059346 10.039698 -3.82350815 12.03803427 -5.3125 14 C-6.07175781 15.010625 -6.83101563 16.02125 -7.61328125 17.0625 C-11.01043702 21.2436148 -14.58981439 24.89653605 -19 28 C-17.59449154 23.52792762 -15.3635857 21.19950835 -12 18 C-11.1646875 16.8553125 -11.1646875 16.8553125 -10.3125 15.6875 C-9.6628125 14.8521875 -9.6628125 14.8521875 -9 14 C-8.34 14 -7.68 14 -7 14 C-6.6596875 13.0409375 -6.6596875 13.0409375 -6.3125 12.0625 C-4.51434174 7.86679739 -2.26095979 3.96099444 0 0 Z " fill="#6F8CA5" transform="translate(425,388)"/>
<path d="M0 0 C3.28330144 2.92348758 3.95866933 5.75457495 5 10 C4.01 10 3.02 10 2 10 C2.42880217 13.57335138 2.92424773 16.78536858 4.125 20.1875 C5.05085398 23.16345922 4.87296946 24.12903705 4 27 C-0.52983883 17.56414196 -1.56650536 10.34513934 0 0 Z " fill="#2F4767" transform="translate(290,249)"/>
<path d="M0 0 C2.22586976 2.96782634 3.40018441 4.56419049 4.60546875 7.8203125 C4.86650391 8.52027344 5.12753906 9.22023437 5.39648438 9.94140625 C5.65751953 10.66199219 5.91855469 11.38257813 6.1875 12.125 C6.46013672 12.85332031 6.73277344 13.58164063 7.01367188 14.33203125 C9 19.71851504 9 19.71851504 9 22 C8.34 22 7.68 22 7 22 C7 21.34 7 20.68 7 20 C6.34 20 5.68 20 5 20 C5 18.35 5 16.7 5 15 C4.34 15 3.68 15 3 15 C2.67 14.34 2.34 13.68 2 13 C1.34 13 0.68 13 0 13 C0 8.71 0 4.42 0 0 Z " fill="#256693" transform="translate(268,191)"/>
<path d="M0 0 C0.7734375 0.3403125 0.7734375 0.3403125 1.5625 0.6875 C1.2325 1.3475 0.9025 2.0075 0.5625 2.6875 C-7.39967975 5.14400853 -15.22959664 4.91847855 -23.5 4.8125 C-24.85611315 4.80244631 -26.21223355 4.7933247 -27.56835938 4.78515625 C-30.858261 4.76174058 -34.14778438 4.72894423 -37.4375 4.6875 C-37.4375 4.3575 -37.4375 4.0275 -37.4375 3.6875 C-36.62595459 3.67291748 -35.81440918 3.65833496 -34.97827148 3.64331055 C-31.27671807 3.56852368 -27.57603621 3.47196239 -23.875 3.375 C-22.59818359 3.35244141 -21.32136719 3.32988281 -20.00585938 3.30664062 C-13.75493963 3.12804292 -5.47085483 -0.70139164 0 0 Z " fill="#1F273A" transform="translate(371.4375,418.3125)"/>
<path d="M0 0 C0.33 0 0.66 0 1 0 C1.19738568 3.24947861 1.3811754 6.49958873 1.5625 9.75 C1.61857422 10.67039062 1.67464844 11.59078125 1.73242188 12.5390625 C1.78076172 13.42851562 1.82910156 14.31796875 1.87890625 15.234375 C1.94960327 16.45979004 1.94960327 16.45979004 2.02172852 17.70996094 C2.00005285 19.99442979 1.58415322 21.80331735 1 24 C0.93101758 26.59373914 0.90565248 29.15810197 0.9375 31.75 C0.94426758 32.79607422 0.94426758 32.79607422 0.95117188 33.86328125 C0.9628998 35.57555803 0.98083347 37.28779033 1 39 C0.67 39 0.34 39 0 39 C-1.12371717 25.9769207 -1.71314503 13.00154711 0 0 Z " fill="#9EB3C6" transform="translate(435,256)"/>
<path d="M0 0 C0.66 0.33 1.32 0.66 2 1 C3.03477479 5.86344151 3.02946505 10.53241538 2.96875 15.48828125 C3.01310767 19.05352924 3.47782172 22.47529658 4 26 C-0.31112432 21.68887568 -1.1714909 12.93036136 -1.25 6.9375 C-1.04205179 4.49410852 -0.74591034 2.33096981 0 0 Z " fill="#2376A9" transform="translate(266,186)"/>
<path d="M0 0 C0.556875 0.721875 1.11375 1.44375 1.6875 2.1875 C8.45507394 10.41833317 17.11778748 16.23856485 26 22 C23 23 23 23 21.17578125 22.22265625 C19.45052083 21.1484375 17.72526042 20.07421875 16 19 C16 18.34 16 17.68 16 17 C15.46375 16.7525 14.9275 16.505 14.375 16.25 C7.40743598 12.58286104 3.60522106 8.37645993 -1 2 C-0.67 1.34 -0.34 0.68 0 0 Z " fill="#A38593" transform="translate(94,403)"/>
<path d="M0 0 C3.33622553 3.33622553 2.88284901 7.43111148 3 12 C2.83958811 18.00887155 2.42448369 24.00498426 2 30 C-0.36008817 26.45986775 -0.23463644 24.98878045 -0.1953125 20.80078125 C-0.18886719 19.59228516 -0.18242187 18.38378906 -0.17578125 17.13867188 C-0.15064453 15.2447168 -0.15064453 15.2447168 -0.125 13.3125 C-0.11597656 12.03826172 -0.10695313 10.76402344 -0.09765625 9.45117188 C-0.07405641 6.30059373 -0.04113194 3.15039017 0 0 Z " fill="#6889A6" transform="translate(425,284)"/>
<path d="M0 0 C0.66 0 1.32 0 2 0 C3.60355101 3.50776784 4.22036864 6.14354879 4 10 C4.66 10 5.32 10 6 10 C7.23076923 16.4 7.23076923 16.4 6.0625 19.4375 C5.711875 19.953125 5.36125 20.46875 5 21 C5 19.35 5 17.7 5 16 C4.34 16 3.68 16 3 16 C2.87625 15.46375 2.7525 14.9275 2.625 14.375 C2.01188161 11.88990862 2.01188161 11.88990862 0.9375 9.125 C-0.02689122 5.9103626 -0.1587822 3.33442614 0 0 Z " fill="#20598D" transform="translate(276,218)"/>
<path d="M0 0 C0.66 0.33 1.32 0.66 2 1 C2.45490918 7.36872855 1.55349016 11.64005331 -2 17 C-2.97178119 18.02744407 -3.96504762 19.03621913 -5 20 C-5.66 19.67 -6.32 19.34 -7 19 C-6.175 18.113125 -5.35 17.22625 -4.5 16.3125 C-2.63317853 14.0754873 -2.03263604 13.20514081 -1.5625 10.25 C-1.81984552 7.80739337 -1.81984552 7.80739337 -4 6 C-2.68 4.02 -1.36 2.04 0 0 Z " fill="#21517A" transform="translate(141,210)"/>
<path d="M0 0 C0.66 0 1.32 0 2 0 C3.55078125 1.609375 3.55078125 1.609375 5.3125 3.75 C7.34709188 6.15528357 9.13770127 8.10819386 11.625 10.0625 C14.32478871 12.26495921 15.98515226 14.61910783 17.88671875 17.51171875 C18.94616763 19.15989263 18.94616763 19.15989263 21 20 C20.67 20.99 20.34 21.98 20 23 C15.07231095 18.20711095 10.47244135 13.21784824 6 8 C5.41476563 7.33097656 4.82953125 6.66195313 4.2265625 5.97265625 C0 1.12103873 0 1.12103873 0 0 Z " fill="#4B4453" transform="translate(142,330)"/>
<path d="M0 0 C0.33 0.66 0.66 1.32 1 2 C-3.33324109 8.46463203 -8.49830613 14.63335082 -15 19 C-17.3046875 18.74609375 -17.3046875 18.74609375 -19 18 C-18.46632813 17.62230469 -17.93265625 17.24460937 -17.3828125 16.85546875 C-10.69124164 11.91204184 -5.42583039 6.26405889 0 0 Z " fill="#416184" transform="translate(411,393)"/>
<path d="M0 0 C0 0.66 0 1.32 0 2 C-0.94875 2.28875 -1.8975 2.5775 -2.875 2.875 C-8.73103841 5.32998543 -12.73920776 10.45878999 -17 15 C-17.66 15.66 -18.32 16.32 -19 17 C-18.58332936 12.13884258 -16.49843869 10.23605579 -13 7 C-12.67 6.34 -12.34 5.68 -12 5 C-11.34 5 -10.68 5 -10 5 C-9.67 4.01 -9.34 3.02 -9 2 C-5.67908998 0.29466783 -3.81507216 0 0 0 Z " fill="#157DA6" transform="translate(187,136)"/>
<path d="M0 0 C0.33 0 0.66 0 1 0 C2.20777619 7.59173606 -2.01297976 12.80587927 -6 19 C-7.55410289 15.89179421 -6.97228991 13.2079745 -6 10 C-4.22135431 6.51871912 -2.26025267 3.19132266 0 0 Z " fill="#2A4057" transform="translate(419,374)"/>
<path d="M0 0 C3.27459696 1.11003287 5.82650143 2.34266762 8.6875 4.25 C8.0275 5.57 7.3675 6.89 6.6875 8.25 C4.87137512 7.29855402 3.05968919 6.33863067 1.25 5.375 C0.24066406 4.84132813 -0.76867187 4.30765625 -1.80859375 3.7578125 C-4.3125 2.25 -4.3125 2.25 -5.3125 0.25 C-3.3125 -0.75 -3.3125 -0.75 0 0 Z " fill="#915655" transform="translate(127.3125,413.75)"/>
<path d="M0 0 C0.66 0.33 1.32 0.66 2 1 C-8.21491228 11.51535088 -8.21491228 11.51535088 -15 12 C-12.76592111 8.64888166 -11.73784176 7.18446044 -7.75 6.1875 C-6.8425 6.125625 -5.935 6.06375 -5 6 C-5 5.01 -5 4.02 -5 3 C-2.625 1.25 -2.625 1.25 0 0 Z " fill="#168AAE" transform="translate(192,132)"/>
<path d="M0 0 C0.33 0 0.66 0 1 0 C1.05441656 1.89551022 1.09298035 3.7914792 1.125 5.6875 C1.14820313 6.74324219 1.17140625 7.79898437 1.1953125 8.88671875 C0.91064423 13.42433094 -0.49899185 16.24848777 -3 20 C-3.66 20 -4.32 20 -5 20 C-4.80664062 19.31035156 -4.61328125 18.62070312 -4.4140625 17.91015625 C-2.76761853 11.96828666 -1.28514381 6.03029017 0 0 Z " fill="#7E96AD" transform="translate(433,363)"/>
<path d="M0 0 C0.66 0 1.32 0 2 0 C2.63019694 10.97592998 2.63019694 10.97592998 0 15.25 C-0.66 15.8275 -1.32 16.405 -2 17 C-2.99 16.67 -3.98 16.34 -5 16 C-3.625 13.5 -3.625 13.5 -2 11 C-1.34 11 -0.68 11 0 11 C0 8.69 0 6.38 0 4 C-0.33 4.66 -0.66 5.32 -1 6 C-1.66 6 -2.32 6 -3 6 C-1.125 1.125 -1.125 1.125 0 0 Z " fill="#14487F" transform="translate(392,211)"/>
<path d="M0 0 C1.93238525 0.07855225 1.93238525 0.07855225 3.90380859 0.15869141 C4.58905609 0.18371735 5.27430359 0.20874329 5.98031616 0.23452759 C8.17145919 0.316777 10.3617072 0.41334439 12.55224609 0.51025391 C14.0365844 0.56848863 15.52095955 0.62579202 17.00537109 0.68212891 C20.64648583 0.82236148 24.28693229 0.97544141 27.92724609 1.13525391 C27.92724609 1.46525391 27.92724609 1.79525391 27.92724609 2.13525391 C23.36511066 2.33244118 18.80253295 2.51631761 14.23974609 2.69775391 C12.94617188 2.75382812 11.65259766 2.80990234 10.31982422 2.86767578 C8.44907227 2.94018555 8.44907227 2.94018555 6.54052734 3.01416016 C5.39366455 3.0612915 4.24680176 3.10842285 3.06518555 3.15698242 C0.18883417 3.13706526 -2.28657085 2.81297411 -5.07275391 2.13525391 C-3.07275391 0.13525391 -3.07275391 0.13525391 0 0 Z " fill="#7B494B" transform="translate(152.07275390625,420.86474609375)"/>
<path d="M0 0 C0.33 0.66 0.66 1.32 1 2 C-1.81050236 9.62850641 -6.81766365 13.90311201 -13 19 C-13 16 -13 16 -11.6796875 14.4921875 C-10.78636719 13.69167969 -10.78636719 13.69167969 -9.875 12.875 C-5.83061731 9.02830608 -2.92675189 4.72782998 0 0 Z " fill="#111726" transform="translate(392,342)"/>
<path d="M0 0 C2.31 0.33 4.62 0.66 7 1 C7.33 1.99 7.66 2.98 8 4 C8.66 4 9.32 4 10 4 C10 4.66 10 5.32 10 6 C10.66 6 11.32 6 12 6 C12.33 7.32 12.66 8.64 13 10 C12.34 10 11.68 10 11 10 C11 9.34 11 8.68 11 8 C8.525 7.01 8.525 7.01 6 6 C6 5.34 6 4.68 6 4 C4.35 4 2.7 4 1 4 C0.67 2.68 0.34 1.36 0 0 Z " fill="#13719F" transform="translate(323,136)"/>
<path d="M0 0 C1.57746953 4.7324086 -0.57415114 8.48546456 -2.1875 13.0625 C-2.64479492 14.44791992 -2.64479492 14.44791992 -3.11132812 15.86132812 C-3.41876953 16.74369141 -3.72621094 17.62605469 -4.04296875 18.53515625 C-4.32164795 19.343479 -4.60032715 20.15180176 -4.88745117 20.98461914 C-6.2346179 23.42501004 -7.43859763 24.01653605 -10 25 C-9.74347656 24.37609375 -9.48695313 23.7521875 -9.22265625 23.109375 C-7.20471695 17.97749103 -5.35342664 12.78325534 -3.47851562 7.59765625 C-3.17494141 6.76621094 -2.87136719 5.93476563 -2.55859375 5.078125 C-2.28329834 4.31918945 -2.00800293 3.56025391 -1.72436523 2.77832031 C-1 1 -1 1 0 0 Z " fill="#333844" transform="translate(201,290)"/>
<path d="M0 0 C0.66 0 1.32 0 2 0 C1.566875 1.051875 1.566875 1.051875 1.125 2.125 C-0.40310183 6.03014911 -1.68694726 9.99823123 -2.9375 14 C-4.05427045 17.15323421 -5.44914892 20.03928429 -7 23 C-8.39953172 18.80140483 -6.74567611 15.99135489 -5.1875 12.0625 C-4.91357422 11.34642578 -4.63964844 10.63035156 -4.35742188 9.89257812 C-3.05075906 6.51154893 -1.71313912 3.20064528 0 0 Z " fill="#2E4559" transform="translate(217,247)"/>
<path d="M0 0 C0.66 0.33 1.32 0.66 2 1 C1.01 1.33 0.02 1.66 -1 2 C-1 2.99 -1 3.98 -1 5 C-6.41538462 8.07692308 -6.41538462 8.07692308 -9.375 7.6875 C-9.91125 7.460625 -10.4475 7.23375 -11 7 C-11 6.34 -11 5.68 -11 5 C-10.37351562 4.72285156 -9.74703125 4.44570313 -9.1015625 4.16015625 C-8.28429687 3.79792969 -7.46703125 3.43570312 -6.625 3.0625 C-5.81289063 2.70285156 -5.00078125 2.34320313 -4.1640625 1.97265625 C-2.76316215 1.3430097 -1.37374716 0.68687358 0 0 Z " fill="#212B3E" transform="translate(386,411)"/>
<path d="M0 0 C0.68835938 0.59748047 0.68835938 0.59748047 1.390625 1.20703125 C2.00421875 1.73683594 2.6178125 2.26664062 3.25 2.8125 C3.85328125 3.33457031 4.4565625 3.85664063 5.078125 4.39453125 C6.02945313 5.18923828 6.02945313 5.18923828 7 6 C7.94359375 6.81984375 7.94359375 6.81984375 8.90625 7.65625 C11.44662636 9.2866408 13.25580904 9.49051375 16.25 9.6875 C17.58804688 9.78611328 17.58804688 9.78611328 18.953125 9.88671875 C19.62859375 9.92410156 20.3040625 9.96148437 21 10 C21 10.33 21 10.66 21 11 C9.87819221 12.373272 9.87819221 12.373272 5.35546875 9.06640625 C0 3.03547297 0 3.03547297 0 0 Z " fill="#413B4B" transform="translate(166,355)"/>
<path d="M0 0 C2 2 2 2 2.18286133 3.84765625 C2.07426149 6.23317127 1.95824528 8.61641899 1.8125 11 C1.78091797 11.83273438 1.74933594 12.66546875 1.71679688 13.5234375 C1.67232422 14.32007812 1.62785156 15.11671875 1.58203125 15.9375 C1.54311768 16.66839844 1.5042041 17.39929688 1.46411133 18.15234375 C1 20 1 20 -2 22 C-1.835 21.42636719 -1.67 20.85273438 -1.5 20.26171875 C-0.99989365 17.99951892 -0.93271434 16.1212391 -1 13.8125 C-1.06220876 9.13129047 -0.58949905 4.64230499 0 0 Z " fill="#37C2D7" transform="translate(197,112)"/>
<path d="M0 0 C1.71215436 3.42430872 -0.02649577 6.74451284 -1.03125 10.2890625 C-2.15625344 13.4372576 -3.63792284 15.63792284 -6 18 C-5.41347648 13.51006131 -4.2356462 9.77456816 -2.4375 5.625 C-1.98246094 4.56539063 -1.52742187 3.50578125 -1.05859375 2.4140625 C-0.70925781 1.61742187 -0.35992187 0.82078125 0 0 Z " fill="#323C4B" transform="translate(208,271)"/>
<path d="M0 0 C0.66 0 1.32 0 2 0 C1.34309381 3.78239671 0.279869 7.21841526 -1.0625 10.8125 C-1.42472656 11.78832031 -1.78695312 12.76414063 -2.16015625 13.76953125 C-2.57587891 14.87361328 -2.57587891 14.87361328 -3 16 C-3.33 16 -3.66 16 -4 16 C-3.6083965 10.04492601 -2.62875405 5.37180176 0 0 Z " fill="#1D709E" transform="translate(231,224)"/>
<path d="M0 0 C0.33 0 0.66 0 1 0 C1.64317031 7.07487342 -0.17264102 11.09493185 -4 17 C-5.13490188 13.59529435 -4.85941549 12.87970369 -3.6875 9.625 C-3.40648437 8.83480469 -3.12546875 8.04460937 -2.8359375 7.23046875 C-1.92672603 4.8044886 -1.00198428 2.38934712 0 0 Z " fill="#31526C" transform="translate(217,261)"/>
<path d="M0 0 C0.33 0 0.66 0 1 0 C1.10808032 7.09727428 0.93854006 13.96094956 0 21 C-0.33 21 -0.66 21 -1 21 C-2.04819354 13.54932699 -1.91318843 7.2890898 0 0 Z " fill="#2773A1" transform="translate(114,195)"/>
<path d="M0 0 C0.66 0.33 1.32 0.66 2 1 C-5.46432319 10.05613851 -5.46432319 10.05613851 -10 12 C-10.66 11.67 -11.32 11.34 -12 11 C-11.55269531 10.62488281 -11.10539062 10.24976563 -10.64453125 9.86328125 C-6.92631278 6.7158767 -3.392819 3.4956317 0 0 Z " fill="#62829B" transform="translate(406,412)"/>
<path d="M0 0 C1.06635417 2.73374433 1.04593279 3.86646543 0.07421875 6.69140625 C-0.61220703 8.11259766 -0.61220703 8.11259766 -1.3125 9.5625 C-1.76238281 10.51253906 -2.21226562 11.46257812 -2.67578125 12.44140625 C-4 15 -4 15 -6 18 C-5.50356293 12.29097373 -4.20216829 4.20216829 0 0 Z " fill="#2B5674" transform="translate(225,227)"/>
<path d="M0 0 C6.6 0 13.2 0 20 0 C20 0.33 20 0.66 20 1 C18.81921875 1.06058594 17.6384375 1.12117188 16.421875 1.18359375 C14.8645723 1.26802582 13.30728121 1.35267249 11.75 1.4375 C10.97269531 1.47681641 10.19539063 1.51613281 9.39453125 1.55664062 C8.26337891 1.61948242 8.26337891 1.61948242 7.109375 1.68359375 C6.07248535 1.73858032 6.07248535 1.73858032 5.01464844 1.79467773 C2.93371671 2.00675524 1.01427578 2.44508677 -1 3 C-0.67 2.01 -0.34 1.02 0 0 Z " fill="#667890" transform="translate(342,434)"/>
<path d="M0 0 C4.21422242 2.88341534 5.76075855 5.04303419 7 10 C4.0625 8.9375 4.0625 8.9375 1 7 C0.125 3.3125 0.125 3.3125 0 0 Z " fill="#9F564E" transform="translate(106,398)"/>
<path d="M0 0 C2.92586433 1.46293216 3.05946588 3.40270098 4.125 6.4375 C4.47820312 7.42621094 4.83140625 8.41492188 5.1953125 9.43359375 C6 12 6 12 6 14 C5.34 14 4.68 14 4 14 C4 13.34 4 12.68 4 12 C3.34 12 2.68 12 2 12 C1.34 8.04 0.68 4.08 0 0 Z " fill="#346182" transform="translate(271,199)"/>
<path d="M0 0 C0.66 0 1.32 0 2 0 C2.25 6.625 2.25 6.625 0 10 C-0.39013716 11.9896995 -0.73202649 13.99019869 -1 16 C-1.33 16 -1.66 16 -2 16 C-2.2358396 10.22192976 -1.86783046 5.48675196 0 0 Z " fill="#35A3CE" transform="translate(264,176)"/>
<path d="M0 0 C1.9631237 1.09562714 3.92036163 2.20180549 5.875 3.3125 C6.96554688 3.92738281 8.05609375 4.54226563 9.1796875 5.17578125 C12 7 12 7 14 10 C10.33118845 9.29445932 7.29549466 7.72264494 4 6 C4 5.34 4 4.68 4 4 C2.68 3.34 1.36 2.68 0 2 C0 1.34 0 0.68 0 0 Z " fill="#98808F" transform="translate(106,416)"/>
<path d="M0 0 C0.33 0.66 0.66 1.32 1 2 C0.67 2.66 0.34 3.32 0 4 C-0.66 4 -1.32 4 -2 4 C-2.2475 4.598125 -2.495 5.19625 -2.75 5.8125 C-4.16370012 8.28647521 -5.65055383 9.43370255 -8 11 C-7.43040847 7.37386801 -6.07625466 5.74482259 -3.4375 3.25 C-2.79683594 2.63640625 -2.15617188 2.0228125 -1.49609375 1.390625 C-1.00238281 0.93171875 -0.50867188 0.4728125 0 0 Z " fill="#1C5E7D" transform="translate(162,146)"/>
<path d="M0 0 C0.66 0.33 1.32 0.66 2 1 C-2.33664919 4.11696661 -5.80408388 4.55966813 -11 5 C-10.67 3.68 -10.34 2.36 -10 1 C-9.0925 1.20625 -8.185 1.4125 -7.25 1.625 C-3.8011843 2.02294027 -2.89131022 1.65217727 0 0 Z " fill="#334965" transform="translate(383,416)"/>
<path d="M0 0 C0.66 0 1.32 0 2 0 C3.60725635 3.21451269 3.05748185 6.43612536 3 10 C0.9375 7.8125 0.9375 7.8125 -1 5 C-0.75 2.1875 -0.75 2.1875 0 0 Z " fill="#1E6498" transform="translate(273,211)"/>
<path d="M0 0 C0.99 0.33 1.98 0.66 3 1 C2.2575 1.5775 1.515 2.155 0.75 2.75 C-1.66087643 4.72253526 -3.84042701 6.76044282 -6 9 C-6.66 8.67 -7.32 8.34 -8 8 C-5.36 5.36 -2.72 2.72 0 0 Z " fill="#246888" transform="translate(173,134)"/>
<path d="M0 0 C0.66 0.33 1.32 0.66 2 1 C-1.80411834 4.91939465 -5.81576108 8.49102731 -10 12 C-8.52278578 8.54798361 -6.56205999 6.35038064 -3.875 3.75 C-3.15054688 3.04359375 -2.42609375 2.3371875 -1.6796875 1.609375 C-1.12539062 1.07828125 -0.57109375 0.5471875 0 0 Z " fill="#30C4D6" transform="translate(111,95)"/>
<path d="M0 0 C2.85793316 2.85793316 2.40799941 5.14665584 2.625 9.125 C2.69976562 10.40632812 2.77453125 11.68765625 2.8515625 13.0078125 C2.92503906 14.48894531 2.92503906 14.48894531 3 16 C-0.13107836 12.61416198 -0.33550778 10.28890538 -0.1875 5.75 C-0.14689453 4.13351563 -0.14689453 4.13351563 -0.10546875 2.484375 C-0.07066406 1.66453125 -0.03585938 0.8446875 0 0 Z " fill="#2BAFCC" transform="translate(241,173)"/>
<path d="M0 0 C0.99 0.33 1.98 0.66 3 1 C2.51789063 1.38671875 2.03578125 1.7734375 1.5390625 2.171875 C0.59160156 2.95304687 0.59160156 2.95304687 -0.375 3.75 C-1.31472656 4.51570313 -1.31472656 4.51570313 -2.2734375 5.296875 C-4.08312318 7.08199481 -5.00117455 8.67949644 -6 11 C-5.75579333 6.76708435 -5.598306 4.62979579 -2.625 1.5 C-1.75875 1.005 -0.8925 0.51 0 0 Z " fill="#ABC3D2" transform="translate(322,370)"/>
<path d="M0 0 C0.66 0.33 1.32 0.66 2 1 C1.02471263 2.33617352 0.04466681 3.6688751 -0.9375 5 C-1.48277344 5.7425 -2.02804688 6.485 -2.58984375 7.25 C-3.28787109 8.11625 -3.28787109 8.11625 -4 9 C-4.33 9 -4.66 9 -5 9 C-5.3125 6.75 -5.3125 6.75 -5 4 C-2.5 1.6875 -2.5 1.6875 0 0 Z " fill="#205A7D" transform="translate(148,161)"/>
<path d="M0 0 C3.84204131 2.47873633 3.84204131 2.47873633 4.625 5.0625 C4.74875 5.701875 4.8725 6.34125 5 7 C5.66 7.66 6.32 8.32 7 9 C4.03 8.505 4.03 8.505 1 8 C0.67 5.36 0.34 2.72 0 0 Z " fill="#176D9A" transform="translate(315,126)"/>
<path d="M0 0 C1.32 0 2.64 0 4 0 C3.35455571 3.48539917 1.89865603 6.02819057 0 9 C-1.53445094 5.93109813 -0.54984289 3.29905734 0 0 Z " fill="#364F6E" transform="translate(413,384)"/>
<path d="M0 0 C3.81684226 1.55500981 6.19195732 4.03595495 9 7 C8.67 7.99 8.34 8.98 8 10 C6.84806377 8.90220176 5.70365063 7.79650554 4.5625 6.6875 C3.92441406 6.07261719 3.28632813 5.45773437 2.62890625 4.82421875 C1 3 1 3 0 0 Z " fill="#565264" transform="translate(154,343)"/>
<path d="M0 0 C3.3 0 6.6 0 10 0 C10 0.33 10 0.66 10 1 C6.04 1.99 2.08 2.98 -2 4 C-1.34 2.68 -0.68 1.36 0 0 Z " fill="#105877" transform="translate(176,130)"/>
<path d="M0 0 C0.66 0.33 1.32 0.66 2 1 C1.01 1.33 0.02 1.66 -1 2 C-1.28875 2.66 -1.5775 3.32 -1.875 4 C-3 6 -3 6 -5.625 6.75 C-6.800625 6.87375 -6.800625 6.87375 -8 7 C-3.76744186 1.25581395 -3.76744186 1.25581395 0 0 Z " fill="#A5EEF3" transform="translate(119,88)"/>
<path d="M0 0 C0.66 0 1.32 0 2 0 C1.49202991 4.3177458 0.80317221 8.03302114 -1 12 C-1.33 12 -1.66 12 -2 12 C-2.21278058 7.53160785 -1.59138085 4.17737474 0 0 Z " fill="#119DC2" transform="translate(243,189)"/>
<path d="M0 0 C-2 3 -2 3 -4.625 3.6875 C-5.800625 3.8421875 -5.800625 3.8421875 -7 4 C-7 3.01 -7 2.02 -7 1 C-3.375 -1.125 -3.375 -1.125 0 0 Z " fill="#2D425D" transform="translate(392,412)"/>
<path d="M0 0 C0.33 0 0.66 0 1 0 C1.33 2.31 1.66 4.62 2 7 C1.34 7 0.68 7 0 7 C0 8.98 0 10.96 0 13 C-0.33 13 -0.66 13 -1 13 C-2.0070238 7.96488101 -1.97387813 4.76052962 0 0 Z " fill="#503A42" transform="translate(115,334)"/>
<path d="M0 0 C0.33 0 0.66 0 1 0 C1.24954005 1.43410368 1.47392642 2.87260072 1.6875 4.3125 C1.87892578 5.51326172 1.87892578 5.51326172 2.07421875 6.73828125 C2 9 2 9 0.51953125 10.79296875 C0.01808594 11.19128906 -0.48335938 11.58960938 -1 12 C-1.08159574 7.83861737 -0.98248524 4.0527516 0 0 Z " fill="#1A4375" transform="translate(366,204)"/>
<path d="M0 0 C0.33 0 0.66 0 1 0 C1.36923077 5.41538462 1.36923077 5.41538462 -0.5 8.375 C-0.995 8.91125 -1.49 9.4475 -2 10 C-1.85950482 8.52031676 -1.71245174 7.04125484 -1.5625 5.5625 C-1.48128906 4.73878906 -1.40007812 3.91507813 -1.31640625 3.06640625 C-1 1 -1 1 0 0 Z " fill="#1D5F80" transform="translate(231,211)"/>
<path d="M0 0 C0 0.66 0 1.32 0 2 C-3.3 1.67 -6.6 1.34 -10 1 C-10 0.67 -10 0.34 -10 0 C-6.33694766 -0.74926071 -3.57644848 -1.2380014 0 0 Z " fill="#926065" transform="translate(149,422)"/>
<path d="M0 0 C0.66 0.33 1.32 0.66 2 1 C0.35 2.98 -1.3 4.96 -3 7 C-3.99 6.67 -4.98 6.34 -6 6 C-4.02 4.02 -2.04 2.04 0 0 Z " fill="#323849" transform="translate(376,360)"/>
<path d="M0 0 C0 3.90838866 -1.50567876 5.11594107 -4 8 C-4.66 7.67 -5.32 7.34 -6 7 C-4.02 4.69 -2.04 2.38 0 0 Z " fill="#275880" transform="translate(140,222)"/>
<path d="M0 0 C1.9375 0.6875 1.9375 0.6875 4 2 C4.75 4.625 4.75 4.625 5 7 C4.01 6.67 3.02 6.34 2 6 C0.8125 2.9375 0.8125 2.9375 0 0 Z " fill="#1097C0" transform="translate(313,132)"/>
<path d="M0 0 C0.33 0 0.66 0 1 0 C1 2.64 1 5.28 1 8 C0.01 8.33 -0.98 8.66 -2 9 C-1.41196203 5.97580475 -0.77321882 2.98241547 0 0 Z " fill="#0788A5" transform="translate(196,122)"/>
<path d="M0 0 C1.125 1.5625 1.125 1.5625 2 4 C1.125 7.75 1.125 7.75 0 11 C-0.33 11 -0.66 11 -1 11 C-1.0270043 9.54176788 -1.04639787 8.08339325 -1.0625 6.625 C-1.07410156 5.81289062 -1.08570313 5.00078125 -1.09765625 4.1640625 C-1 2 -1 2 0 0 Z " fill="#2991B9" transform="translate(312,119)"/>
</svg>
